<svg width="31" height="31" viewBox="0 0 31 31" fill="none" xmlns="http://www.w3.org/2000/svg">
<rect x="20.25" y="4" width="7" height="23" rx="1.2" fill="white"/>
<rect x="4" y="19" width="23.25" height="8.08696" rx="1.2" fill="white"/>
<rect x="4" y="4" width="23.25" height="8.08696" rx="1.2" fill="white"/>
<rect x="4" y="4" width="7" height="23" rx="1.2" fill="white"/>
<path d="M26.5321 10.3583C26.2678 9.43984 25.4921 8.71511 24.5072 8.46782C22.7076 8.0075 15.508 8.00001 15.508 8.00001C15.508 8.00001 8.30945 7.99251 6.50868 8.43249C5.54336 8.67764 4.74582 9.41843 4.47921 10.3359C4.0046 12.0123 4 15.4893 4 15.4893C4 15.4893 3.9954 18.9834 4.46657 20.6427C4.73088 21.5602 5.50659 22.2849 6.49259 22.5322C8.3106 22.9925 15.4907 23 15.4907 23C15.4907 23 22.6904 23.0075 24.49 22.5686C25.4737 22.3224 26.2529 21.5987 26.5206 20.6813C26.9964 19.0059 26.9998 15.53 26.9998 15.53C26.9998 15.53 27.0228 12.0348 26.5321 10.3583ZM13.205 18.7105L13.2107 12.2874L19.1946 15.5043L13.205 18.7105Z" fill="white"/>
</svg>
