<svg width="31" height="31" viewBox="0 0 31 31" fill="none" xmlns="http://www.w3.org/2000/svg">
<path d="M25.9583 4H5.29167C4.57738 4 4 4.57867 4 5.29167V25.9583C4 26.6713 4.57738 27.25 5.29167 27.25H16.4194V18.26H13.3995V14.7402H16.4194V12.1569C16.4194 9.15375 18.2535 7.51721 20.9402 7.51721C21.8431 7.51462 22.7472 7.56112 23.6462 7.65542V10.7812H21.7927C20.3357 10.7812 20.0515 11.4762 20.0515 12.4927V14.7338H23.5352L23.0831 18.2535H20.0502V27.25H25.9583C26.6726 27.25 27.25 26.6713 27.25 25.9583V5.29167C27.25 4.57867 26.6726 4 25.9583 4Z" fill="#E21A41"/>
</svg>
