<svg width="31" height="31" viewBox="0 0 31 31" fill="none" xmlns="http://www.w3.org/2000/svg">
<path d="M15.4987 9.52856C12.1998 9.52856 9.52731 12.2023 9.52731 15.4999C9.52731 18.7989 12.1998 21.4726 15.4987 21.4726C18.795 21.4726 21.4701 18.7989 21.4701 15.4999C21.4701 12.2023 18.795 9.52856 15.4987 9.52856ZM15.4987 19.3801C13.3558 19.3801 11.6185 17.6428 11.6185 15.5012C11.6185 13.3584 13.3558 11.6224 15.4987 11.6224C17.6416 11.6224 19.3763 13.3584 19.3763 15.5012C19.3763 17.6428 17.6416 19.3801 15.4987 19.3801Z" fill="white"/>
<path d="M21.7078 10.7015C22.4768 10.7015 23.1002 10.0781 23.1002 9.30904C23.1002 8.54003 22.4768 7.91663 21.7078 7.91663C20.9387 7.91663 20.3153 8.54003 20.3153 9.30904C20.3153 10.0781 20.9387 10.7015 21.7078 10.7015Z" fill="white"/>
<path d="M26.5218 7.89339C25.916 6.33176 24.6825 5.09693 23.1208 4.49372C22.218 4.15401 21.2634 3.97189 20.2973 3.95122C19.0534 3.89697 18.6594 3.88147 15.5052 3.88147C12.3509 3.88147 11.9466 3.88147 10.7131 3.95122C9.74951 3.97059 8.79497 4.15272 7.89209 4.49372C6.32918 5.09693 5.09564 6.33176 4.49114 7.89339C4.15143 8.79755 3.9693 9.7508 3.94993 10.717C3.89439 11.9596 3.87759 12.3535 3.87759 15.5091C3.87759 18.6633 3.87759 19.065 3.94993 20.3011C3.9693 21.2673 4.15143 22.2206 4.49114 23.126C5.09693 24.6863 6.33047 25.9212 7.89339 26.5257C8.79239 26.877 9.74693 27.0759 10.7157 27.1069C11.9596 27.1612 12.3535 27.178 15.5078 27.178C18.662 27.178 19.0663 27.178 20.2998 27.1069C21.2647 27.0876 22.2193 26.9041 23.1234 26.5657C24.6851 25.9599 25.9186 24.7264 26.5244 23.1648C26.8641 22.2606 27.0462 21.3073 27.0656 20.3412C27.1211 19.0986 27.1379 18.7046 27.1379 15.5491C27.1379 12.3936 27.1379 11.9931 27.0656 10.757C27.0488 9.77793 26.868 8.80789 26.5218 7.89339ZM24.9486 20.2056C24.9395 20.9496 24.8052 21.6871 24.5468 22.3859C24.1529 23.4024 23.3508 24.2058 22.3355 24.5959C21.6445 24.853 20.916 24.9873 20.1784 24.9976C18.9513 25.0545 18.6052 25.0687 15.4587 25.0687C12.3096 25.0687 11.988 25.0687 10.7376 24.9976C10.0027 24.9886 9.27159 24.853 8.58184 24.5959C7.56272 24.2071 6.75543 23.4037 6.36147 22.3859C6.1083 21.6961 5.97139 20.9663 5.95976 20.2301C5.90422 19.003 5.8913 18.6568 5.8913 15.5103C5.8913 12.3626 5.8913 12.0409 5.95976 10.7893C5.9688 10.0453 6.10314 9.30905 6.36147 8.61026C6.75543 7.59114 7.56272 6.78901 8.58184 6.39893C9.27159 6.14318 10.0027 6.00755 10.7376 5.99722C11.966 5.94168 12.3109 5.92618 15.4587 5.92618C18.6065 5.92618 18.9294 5.92618 20.1784 5.99722C20.916 6.00626 21.6445 6.14189 22.3355 6.39893C23.3508 6.7903 24.1529 7.59372 24.5468 8.61026C24.8 9.30001 24.9369 10.0298 24.9486 10.7661C25.0041 11.9944 25.0183 12.3393 25.0183 15.4871C25.0183 18.6336 25.0183 18.972 24.9628 20.2068H24.9486V20.2056Z" fill="white"/>
</svg>
