<svg width="31" height="31" viewBox="0 0 31 31" fill="none" xmlns="http://www.w3.org/2000/svg">
<path d="M25.8333 3.875H5.16667C4.45238 3.875 3.875 4.45238 3.875 5.16667V25.8333C3.875 26.5476 4.45238 27.125 5.16667 27.125H25.8333C26.5476 27.125 27.125 26.5476 27.125 25.8333V5.16667C27.125 4.45238 26.5476 3.875 25.8333 3.875ZM11.2982 19.0469C9.33875 19.0469 7.75258 17.4595 7.75258 15.5C7.75258 13.5405 9.34004 11.9531 11.2982 11.9531C13.2602 11.9531 14.8464 13.5405 14.8464 15.5C14.8464 17.4607 13.2602 19.0469 11.2982 19.0469ZM19.7018 19.0469C17.7423 19.0469 16.1536 17.4595 16.1536 15.5C16.1536 13.5405 17.7423 11.9531 19.7018 11.9531C21.6612 11.9531 23.2474 13.5405 23.2474 15.5C23.2474 17.4607 21.6612 19.0469 19.7018 19.0469Z" fill="white"/>
</svg>
