<svg width="31" height="30" viewBox="0 0 31 30" fill="none" xmlns="http://www.w3.org/2000/svg">
<path fill-rule="evenodd" clip-rule="evenodd" d="M5.2 3C4.53726 3 4 3.53726 4 4.2V25.05C4 25.7127 4.53726 26.25 5.2 26.25H26.05C26.7127 26.25 27.25 25.7127 27.25 25.05V4.2C27.25 3.53726 26.7127 3 26.05 3H5.2ZM21.4689 12.3838C21.4689 12.253 21.4689 12.1222 21.4589 11.9906C22.0589 11.5591 22.5817 11.0246 23 10.4246C22.4489 10.6592 21.849 10.8276 21.2299 10.8937C21.8673 10.5186 22.3535 9.9277 22.5817 9.22478C21.9909 9.57136 21.3254 9.82471 20.6308 9.95627C20.069 9.36537 19.2698 9 18.3844 9C16.6808 9 15.3099 10.3592 15.3099 12.0282C15.3099 12.2627 15.3389 12.4966 15.3863 12.7221C12.8354 12.5905 10.56 11.3899 9.04646 9.55331C8.78007 10.0029 8.62818 10.5186 8.62818 11.0809C8.62818 12.1312 9.17087 13.0596 9.99903 13.6024C9.49527 13.5836 9.01974 13.4431 8.60986 13.2183V13.2559C8.60986 14.7279 9.66548 15.9465 11.0753 16.2277C10.818 16.2931 10.541 16.3307 10.2654 16.3307C10.0654 16.3307 9.87462 16.3119 9.68456 16.284C10.0754 17.4839 11.2081 18.356 12.5598 18.3838C11.5027 19.1995 10.1799 19.6776 8.74267 19.6776C8.48545 19.6776 8.2473 19.6678 8 19.64C9.36169 20.5031 10.9798 21 12.7217 21C18.3753 21 21.4689 16.387 21.4689 12.3838Z" fill="#E21A41"/>
</svg>
