<svg width="31" height="31" viewBox="0 0 31 31" fill="none" xmlns="http://www.w3.org/2000/svg">
<path d="M25.8333 3.875H5.16667C4.45238 3.875 3.875 4.45367 3.875 5.16667V25.8333C3.875 26.5463 4.45238 27.125 5.16667 27.125H25.8333C26.5476 27.125 27.125 26.5463 27.125 25.8333V5.16667C27.125 4.45367 26.5476 3.875 25.8333 3.875ZM10.7712 23.6853H7.31987V12.5899H10.7712V23.6853ZM9.04554 11.0748C7.93987 11.0748 7.04604 10.1783 7.04604 9.07525C7.04604 7.97217 7.93858 7.07575 9.04554 7.07575C10.1486 7.07575 11.045 7.97087 11.045 9.07525C11.045 10.1796 10.1486 11.0748 9.04554 11.0748ZM23.6866 23.6853H20.2391V18.29C20.2391 17.0035 20.2159 15.3489 18.4463 15.3489C16.6509 15.3489 16.3783 16.7516 16.3783 18.1996V23.6866H12.9335V12.5912H16.2401V14.1076H16.2879C16.7465 13.2357 17.8728 12.316 19.5481 12.316C23.0407 12.316 23.6853 14.6126 23.6853 17.6015V23.6853H23.6866Z" fill="white"/>
</svg>
