<svg width="31" height="31" viewBox="0 0 31 31" fill="none" xmlns="http://www.w3.org/2000/svg">
<path d="M15.4987 9.52856C12.1998 9.52856 9.52734 12.2023 9.52734 15.4999C9.52734 18.7989 12.1998 21.4726 15.4987 21.4726C18.7951 21.4726 21.4701 18.7989 21.4701 15.4999C21.4701 12.2023 18.7951 9.52856 15.4987 9.52856ZM15.4987 19.3801C13.3558 19.3801 11.6186 17.6428 11.6186 15.5012C11.6186 13.3584 13.3558 11.6224 15.4987 11.6224C17.6416 11.6224 19.3763 13.3584 19.3763 15.5012C19.3763 17.6428 17.6416 19.3801 15.4987 19.3801Z" fill="#E21A41"/>
<path d="M21.7078 10.7015C22.4768 10.7015 23.1002 10.0781 23.1002 9.30904C23.1002 8.54003 22.4768 7.91663 21.7078 7.91663C20.9388 7.91663 20.3154 8.54003 20.3154 9.30904C20.3154 10.0781 20.9388 10.7015 21.7078 10.7015Z" fill="#E21A41"/>
<path d="M26.5218 7.89339C25.916 6.33176 24.6824 5.09693 23.1208 4.49372C22.2179 4.15401 21.2634 3.97189 20.2972 3.95122C19.0534 3.89697 18.6594 3.88147 15.5051 3.88147C12.3509 3.88147 11.9466 3.88147 10.7131 3.95122C9.74948 3.97059 8.79494 4.15272 7.89206 4.49372C6.32915 5.09693 5.0956 6.33176 4.49111 7.89339C4.1514 8.79755 3.96927 9.7508 3.9499 10.717C3.89436 11.9596 3.87756 12.3535 3.87756 15.5091C3.87756 18.6633 3.87756 19.065 3.9499 20.3011C3.96927 21.2673 4.1514 22.2206 4.49111 23.126C5.0969 24.6863 6.33044 25.9212 7.89335 26.5257C8.79235 26.877 9.7469 27.0759 10.7156 27.1069C11.9595 27.1612 12.3535 27.178 15.5077 27.178C18.662 27.178 19.0663 27.178 20.2998 27.1069C21.2647 27.0876 22.2192 26.9041 23.1234 26.5657C24.685 25.9599 25.9186 24.7264 26.5244 23.1648C26.8641 22.2606 27.0462 21.3073 27.0656 20.3412C27.1211 19.0986 27.1379 18.7046 27.1379 15.5491C27.1379 12.3936 27.1379 11.9931 27.0656 10.757C27.0488 9.77793 26.8679 8.80789 26.5218 7.89339ZM24.9485 20.2056C24.9395 20.9496 24.8051 21.6871 24.5468 22.3859C24.1529 23.4024 23.3507 24.2058 22.3355 24.5959C21.6444 24.853 20.9159 24.9873 20.1784 24.9976C18.9513 25.0545 18.6051 25.0687 15.4586 25.0687C12.3096 25.0687 11.9879 25.0687 10.7376 24.9976C10.0026 24.9886 9.27156 24.853 8.58181 24.5959C7.56269 24.2071 6.7554 23.4037 6.36144 22.3859C6.10827 21.6961 5.97135 20.9663 5.95973 20.2301C5.90419 19.003 5.89127 18.6568 5.89127 15.5103C5.89127 12.3626 5.89127 12.0409 5.95973 10.7893C5.96877 10.0453 6.10311 9.30905 6.36144 8.61026C6.7554 7.59114 7.56269 6.78901 8.58181 6.39893C9.27156 6.14318 10.0026 6.00755 10.7376 5.99722C11.966 5.94168 12.3109 5.92618 15.4586 5.92618C18.6064 5.92618 18.9294 5.92618 20.1784 5.99722C20.9159 6.00626 21.6444 6.14189 22.3355 6.39893C23.3507 6.7903 24.1529 7.59372 24.5468 8.61026C24.8 9.30001 24.9369 10.0298 24.9485 10.7661C25.0041 11.9944 25.0183 12.3393 25.0183 15.4871C25.0183 18.6336 25.0183 18.972 24.9627 20.2068H24.9485V20.2056Z" fill="#E21A41"/>
</svg>
