<svg width="445" height="445" viewBox="0 0 445 445" fill="none" xmlns="http://www.w3.org/2000/svg">
<mask id="mask0_437_13" style="mask-type:alpha" maskUnits="userSpaceOnUse" x="0" y="0" width="445" height="445">
<path d="M222.5 445C345.383 445 445 345.383 445 222.5C445 99.6166 345.383 0 222.5 0C99.6166 0 0 99.6166 0 222.5C0 345.383 99.6166 445 222.5 445Z" fill="white"/>
</mask>
<g mask="url(#mask0_437_13)">
<g opacity="0.6">
<path d="M-121 98L-21.9187 98.9975C-17.1138 99.1147 -12.3228 99.5697 -7.58086 100.359L125.568 124.712C129.484 125.44 135.693 124.737 139.349 123.183L192.017 100.829C195.68 99.2742 201.922 98.2803 205.881 98.6444L309.523 108.11C313.5 108.474 319.98 108.816 323.958 108.875L445 110.695" stroke="white"/>
<path d="M-122 105.105L-62.7456 107.453C-58.7622 107.614 -52.244 107.741 -48.2606 107.738H-23.1907C-18.3734 107.805 -13.5659 108.195 -8.7999 108.904L124.86 130.763C128.789 131.408 135.021 130.69 138.708 129.17L191.777 107.267C195.464 105.747 201.728 104.752 205.701 105.054L224.35 106.487C228.334 106.793 234.812 107.402 238.77 107.84L309.29 115.675C313.252 116.116 319.748 116.601 323.728 116.751L337.358 117.276C341.342 117.425 347.86 117.564 351.843 117.579L445 117.914" stroke="white"/>
<path d="M-122 112.786L-63.221 116.794C-59.2389 117.065 -52.7228 117.251 -48.7407 117.208L-23.6139 116.944C-18.7972 116.955 -13.9862 117.268 -9.20962 117.879L124.733 136.812C128.675 137.372 134.927 136.637 138.627 135.185L192.008 114.221C195.679 112.786 201.945 111.794 205.927 112.037L224.618 113.175C228.6 113.418 235.072 114.032 239.022 114.538L309.291 123.553C313.24 124.06 319.72 124.671 323.695 124.91L337.249 125.727C341.231 125.97 347.747 126.137 351.729 126.109L445 125.395" stroke="white"/>
<path d="M-122 118.518L-63.6892 124.323C-59.7302 124.719 -53.2307 124.973 -49.25 124.889L-24.0699 124.356C-19.2536 124.315 -14.4391 124.564 -9.65237 125.1L124.575 141.853C128.523 142.343 134.795 141.57 138.508 140.129L192.201 119.298C195.914 117.846 202.207 116.834 206.18 117.023L224.912 117.919C228.892 118.108 235.359 118.746 239.297 119.338L309.318 129.879C313.255 130.47 319.722 131.228 323.688 131.566L337.165 132.705C341.146 133.043 347.634 133.253 351.615 133.177L445 131.363" stroke="white"/>
<path d="M-122 126.26L-64.1687 133.936C-59.3864 134.502 -54.5724 134.743 -49.7588 134.656L-24.5207 133.847C-19.7051 133.752 -14.8882 133.935 -10.0927 134.394L124.404 148.888C128.362 149.313 134.647 148.493 138.373 147.064L192.387 126.364C196.11 124.935 202.412 123.875 206.392 124.012L225.165 124.651C229.977 124.868 234.774 125.361 239.532 126.127L309.327 138.237C313.252 138.916 319.699 139.832 323.654 140.267L337.069 141.744C341.862 142.213 346.678 142.401 351.493 142.309L445 139.374" stroke="white"/>
<path d="M-122 133.91L-64.6067 143.128C-59.8489 143.808 -55.0426 144.092 -50.2376 143.975L-24.9207 142.926C-20.107 142.779 -15.2888 142.886 -10.4865 143.247L124.279 154.917C128.257 155.277 134.543 154.43 138.279 153.071L192.609 133.333C196.349 131.977 202.66 130.928 206.638 131.004L225.445 131.364C230.258 131.523 235.053 132.018 239.796 132.846L309.345 146.041C313.255 146.784 319.678 147.815 323.624 148.33L336.98 150.082C341.758 150.634 346.57 150.846 351.378 150.717L445 146.784" stroke="white"/>
<path d="M-122 141.683L-65.0552 152.816C-60.3267 153.636 -55.5289 153.973 -50.7341 153.821L-25.371 152.489C-21.394 152.28 -14.886 152.332 -10.9378 152.607L124.139 161.949C128.116 162.225 134.421 161.348 138.171 160.005L192.82 140.41C196.569 139.064 202.893 137.982 206.87 138L225.739 138.096C230.542 138.207 235.328 138.725 240.046 139.644L309.363 154.459C313.257 155.292 319.656 156.477 323.587 157.097L336.892 159.191C341.651 159.853 346.459 160.099 351.26 159.925L445 154.859" stroke="white"/>
<path d="M-123 148.574L-66.389 161.448C-61.6849 162.396 -56.8872 162.782 -52.0941 162.598L-26.6255 161C-22.6427 160.748 -16.1434 160.707 -12.1641 160.909L123.445 167.714C127.428 167.916 133.761 167.011 137.53 165.702L192.588 146.617C196.357 145.312 202.697 144.213 206.68 144.176L225.638 144C230.441 144.054 235.228 144.583 239.93 145.579L309.148 161.77C313.03 162.679 319.409 164.002 323.331 164.702L336.619 167.11C341.365 167.868 346.175 168.143 350.975 167.93L445 161.763" stroke="white"/>
<path d="M-123 156.533L-66.832 171.06C-62.9772 172.057 -56.5742 172.636 -52.6036 172.348L-27.0713 170.496C-23.0898 170.204 -16.5964 170.07 -12.6149 170.197L123.295 174.445C127.277 174.572 133.625 173.64 137.411 172.381L192.79 153.905C197.377 152.504 202.119 151.678 206.907 151.444L225.92 151C230.717 151 235.5 151.539 240.177 152.609L309.173 170.081C313.032 171.06 319.384 172.512 323.289 173.309L336.544 176.017C341.265 176.866 346.067 177.167 350.856 176.913L445 169.713" stroke="white"/>
<path d="M-123 163.515L-67.2754 179.693C-63.4507 180.8 -57.0785 181.441 -53.1127 181.115L-27.5156 179.005C-23.5352 178.68 -17.0437 178.455 -13.0633 178.506L123.18 180.232C127.16 180.283 133.518 179.331 137.292 178.111L193.016 160.226C197.612 158.868 202.346 158.035 207.128 157.743L226.201 157.019C230.182 156.871 236.576 157.605 240.418 158.651L309.198 177.391C313.041 178.437 319.359 180.015 323.238 180.898L336.467 183.906C340.35 184.789 346.769 185.227 350.735 184.883L445 176.649" stroke="white"/>
<path d="M-123 170.458L-67.6802 188.287C-63.8929 189.509 -57.5517 190.207 -53.5943 189.844L-27.9294 187.481C-23.9503 187.12 -17.4681 186.8 -13.489 186.778L123.043 186.011C127.829 185.87 132.579 185.144 137.187 183.85L193.22 166.528C197.83 165.204 202.567 164.359 207.352 164.006L226.488 163.034C230.467 162.829 236.837 163.578 240.657 164.691L309.231 184.714C313.047 185.827 319.33 187.531 323.186 188.5L336.397 191.81C340.257 192.779 346.652 193.251 350.613 192.866L445 183.605" stroke="white"/>
<path d="M-123 177.428L-68.0956 196.899C-64.3492 198.226 -58.0462 198.982 -54.0901 198.581L-28.3574 195.967C-24.4013 195.562 -17.9103 195.157 -13.9325 195.064L122.918 191.837C127.706 191.616 132.455 190.867 137.075 189.603L193.433 172.839C198.058 171.565 202.793 170.725 207.576 170.329L226.775 169.049C230.752 168.795 237.099 169.551 240.878 170.734L309.256 192.045C313.049 193.228 319.291 195.053 323.128 196.103L336.323 199.721C340.156 200.771 346.528 201.277 350.484 200.847L445 190.561" stroke="white"/>
<path d="M-123 184.64L-68.5035 206.391C-64.8017 207.863 -58.5369 208.709 -54.5856 208.257L-28.7852 205.313C-24.834 204.861 -18.3486 204.349 -14.3757 204.18L122.796 198.315C127.584 198.011 132.33 197.222 136.964 195.961L193.647 179.246C198.284 177.968 203.019 177.09 207.8 176.619L227.065 175.07C231.041 174.753 237.357 175.544 241.127 176.832L309.299 200.081C313.066 201.366 319.269 203.374 323.076 204.541L336.267 208.588C340.074 209.754 346.418 210.31 350.366 209.824L445 198.187" stroke="white"/>
<path d="M-124 192.626L-69.8126 216.042C-66.1526 217.623 -59.9222 218.516 -55.9689 218.025L-30.0518 214.813C-26.0985 214.323 -19.6111 213.715 -15.6361 213.485L122.102 205.106C126.897 204.725 131.649 203.918 136.304 202.695L193.413 186.564C198.069 185.326 202.811 184.442 207.597 183.918L226.965 182.089C230.948 181.723 237.243 182.517 240.994 183.867L309.097 208.421C312.848 209.771 319.013 211.901 322.8 213.145L336.017 217.499C339.8 218.746 346.128 219.328 350.078 218.812L445 206.149" stroke="white"/>
<path d="M-124 200.582L-70.2102 225.637C-66.5912 227.32 -60.4135 228.267 -56.4578 227.739L-30.4695 224.271C-26.5211 223.746 -20.0467 223.061 -16.0766 222.748L121.993 211.9C126.784 211.448 131.533 210.626 136.198 209.441L193.636 193.865C198.302 192.668 203.041 191.777 207.823 191.199L227.264 189.112C231.223 188.689 237.51 189.502 241.234 190.933L309.138 216.749C312.862 218.162 318.981 220.409 322.738 221.735L335.958 226.409C339.715 227.735 346.012 228.358 349.953 227.79L445 214.104" stroke="white"/>
<path d="M-124 208.36L-70.6039 234.661C-67.0439 236.42 -60.908 237.399 -56.9682 236.845L-30.9195 233.175C-26.9797 232.621 -20.5145 231.859 -16.553 231.484L121.849 218.367C126.634 217.848 131.38 217.021 136.056 215.89L193.84 201.101C198.516 199.96 203.252 199.076 208.026 198.453L227.544 196.133C231.495 195.665 237.751 196.473 241.448 197.92L309.178 224.654C312.875 226.112 318.946 228.439 322.669 229.822L335.907 234.744C339.63 236.127 345.896 236.77 349.828 236.173L445 221.684" stroke="white"/>
<path d="M-124 213.393L-70.9937 241.528C-67.4855 243.388 -61.3986 244.427 -57.4673 243.832L-31.3295 239.89C-27.3981 239.298 -20.9459 238.456 -16.9929 238.001L121.747 222.36C126.526 221.767 131.268 220.918 135.953 219.816L194.056 205.451C197.915 204.498 204.298 203.301 208.24 202.763L227.843 200.157C231.785 199.634 238.009 200.459 241.677 201.985L309.218 230.17C312.886 231.697 318.904 234.152 322.6 235.621L335.855 240.897C339.548 242.366 345.78 243.047 349.704 242.402L445 226.808" stroke="white"/>
<path d="M-124 222.121L-71.3823 251.453C-67.9294 253.377 -61.895 254.443 -57.9685 253.824L-31.759 249.683C-27.8325 249.064 -21.3931 248.142 -17.4485 247.639L121.636 229.846C125.581 229.343 131.969 228.192 135.838 227.288L194.288 213.66C198.153 212.759 204.538 211.549 208.472 210.993L228.144 208.179C232.078 207.613 238.268 208.436 241.909 210.001L309.263 239.031C312.901 240.597 318.87 243.122 322.525 244.66L335.806 250.179C339.461 251.699 345.658 252.396 349.577 251.724L445 235.369" stroke="white"/>
<path d="M-124 228.783L-71.7601 261.225C-68.3698 263.331 -62.3878 264.495 -58.4697 263.797L-32.1781 259.215C-28.26 258.527 -21.8371 257.48 -17.9046 256.881L121.527 235.743C125.46 235.144 131.846 233.906 135.721 233.009L194.492 219.265C198.367 218.361 204.746 217.093 208.672 216.45L228.425 213.212C232.35 212.569 238.513 213.437 242.12 215.142L309.309 246.885C312.924 248.587 318.83 251.347 322.452 253.015L335.756 259.145C339.371 260.813 345.541 261.57 349.448 260.828L445 242.652" stroke="white"/>
<path d="M-125 236.831L-73.0459 271.101C-69.7085 273.308 -63.7685 274.514 -59.852 273.79L-33.4279 268.906C-29.5113 268.17 -23.0935 267.045 -19.1661 266.379L120.867 242.667C124.794 242.001 131.191 240.744 135.078 239.872L194.286 226.611C198.174 225.743 204.566 224.46 208.486 223.765L228.359 220.238C232.283 219.543 238.422 220.422 242.002 222.191L309.122 255.398C312.702 257.171 318.57 260.05 322.153 261.797L335.521 268.292C339.112 270.038 345.244 270.825 349.149 270.038L445 250.754" stroke="white"/>
<path d="M-125 243.551L-73.4233 279.039C-70.1412 281.296 -64.2608 282.53 -60.3527 281.781L-33.8605 276.717C-29.9524 275.965 -23.551 274.764 -19.6356 274.041L120.768 248.199C124.684 247.475 131.074 246.217 134.968 245.396L194.517 232.842C198.41 232.021 204.797 230.744 208.709 230.01L228.669 226.255C232.581 225.532 238.682 226.396 242.229 228.201L309.174 262.275C312.724 264.084 318.532 267.028 322.085 268.822L335.474 275.589C339.028 277.397 345.121 278.182 349.019 277.368L445 257.328" stroke="white"/>
<path d="M-125 251.624L-73.7984 288.933C-70.5825 291.281 -64.7548 292.556 -60.8588 291.766L228.943 233.289C232.843 232.499 238.91 233.386 242.426 235.256L335.438 284.761C338.95 286.63 345.006 287.459 348.891 286.604L445 265.451" stroke="white"/>
<path d="M-125 251.624L-73.7984 288.933C-70.5825 291.281 -64.7548 292.556 -60.8588 291.766L228.943 233.289C232.843 232.499 238.91 233.386 242.426 235.256L335.438 284.761C338.95 286.63 345.006 287.459 348.891 286.604L445 265.451" stroke="white"/>
<path d="M-125 257.861L-73.5633 292.227C-70.2461 294.445 -64.346 295.565 -60.4572 294.716L-31.286 288.344C-27.3972 287.494 -21.0124 286.188 -17.1056 285.441L30.1168 276.426C34.0273 275.694 40.4302 274.468 44.3407 273.736L207.579 243.136C211.493 242.404 217.87 241.087 221.756 240.208L229.909 238.378C233.794 237.503 239.915 238.199 243.511 239.923L317.329 275.35C320.921 277.074 326.734 280.057 330.222 281.978L336.237 285.273C339.732 287.194 345.798 288.201 349.716 287.469L445 270.218" stroke="white"/>
<path d="M-125 263.785L-73.3301 294.581C-69.9081 296.619 -63.9251 297.557 -60.0545 296.659L-30.9423 289.93C-27.0645 289.033 -20.6836 287.75 -16.766 287.042L30.6209 278.663C34.5385 277.973 40.9556 276.847 44.8804 276.193L208.63 248.397C212.551 247.732 218.924 246.41 222.791 245.465L230.88 243.485C234.747 242.537 240.914 243.02 244.586 244.575L318.017 275.321C321.693 276.861 327.542 279.706 331.022 281.643L337.041 284.996C340.521 286.933 346.591 288.077 350.534 287.539L445 274.503" stroke="white"/>
<path d="M-125 271.111L-73.0835 298.903C-69.5638 300.786 -63.5192 301.543 -59.6558 300.585L-30.5938 293.356C-26.7269 292.397 -20.3531 291.079 -16.4246 290.419L31.1474 282.562C35.0723 281.909 41.5112 280.873 45.4397 280.267L209.668 254.785C213.6 254.172 219.967 252.828 223.812 251.793L231.843 249.63C235.688 248.595 241.899 248.863 245.643 250.229L318.714 276.879C323.217 278.598 327.595 280.637 331.816 282.981L337.839 286.443C341.301 288.432 347.374 289.747 351.335 289.38L445 280.326" stroke="white"/>
<path d="M-125 277.496L-72.824 302.235C-69.2065 303.949 -63.1036 304.513 -59.2509 303.489L-30.2382 295.785C-26.3855 294.762 -20.0149 293.43 -16.079 292.818L31.6727 285.441C35.6086 284.832 42.0514 283.883 45.9946 283.33L210.734 260.211C215.492 259.482 220.203 258.462 224.843 257.159L232.823 254.811C236.647 253.698 242.894 253.731 246.704 254.907L319.417 277.403C323.985 278.92 328.402 280.881 332.606 283.26L338.633 286.835C342.077 288.875 348.147 290.374 352.123 290.173L445 285.181" stroke="white"/>
<path d="M-125 284.914L-72.5468 305.64C-68.8497 307.1 -62.682 307.434 -58.8438 306.4L-29.8788 298.542C-25.2181 297.335 -20.4953 296.376 -15.7309 295.672L32.186 289.091C36.129 288.549 42.5862 287.72 46.5365 287.246L211.779 267.425C216.549 266.779 221.265 265.782 225.887 264.443L233.816 262.013C237.618 260.847 243.891 260.661 247.758 261.594L320.158 279.112C324.78 280.354 329.232 282.15 333.416 284.462L339.439 288.014C342.865 290.02 348.924 291.631 352.903 291.602L445 290.784" stroke="white"/>
<path d="M-125 291.308L-72.2719 308.957C-68.4988 310.222 -62.284 310.355 -58.4604 309.254L-29.5207 300.945C-24.8775 299.681 -20.1579 298.716 -15.3909 298.055L32.7214 292.016C36.6716 291.521 43.1397 290.777 47.0972 290.361L212.835 272.943C217.603 272.353 222.308 271.34 226.896 269.916L234.786 267.304C238.562 266.054 244.853 265.628 248.767 266.354L320.888 279.748C324.803 280.471 330.789 282.747 334.201 284.806L340.238 288.418C343.646 290.466 349.691 292.258 353.666 292.391L445 295.599" stroke="white"/>
<path d="M-125 297.108L-71.9687 311.281C-68.1306 312.309 -61.8725 312.224 -58.0633 311.097L-29.1855 302.533C-24.5617 301.245 -19.8458 300.297 -15.0776 299.698L33.2186 294.338C37.1724 293.898 43.6512 293.253 47.6159 292.92L213.88 278.393C218.648 277.873 223.348 276.869 227.904 275.396L235.769 272.629C239.52 271.328 245.818 270.669 249.764 271.165L321.646 280.168C325.593 280.661 331.598 282.734 334.987 284.775L341.035 288.41C344.425 290.451 350.441 292.375 354.42 292.683L445 299.769" stroke="white"/>
<path d="M-125 305.195L-71.6424 316.536C-67.75 317.365 -61.4629 317.052 -57.6682 315.842L-28.8298 306.642C-24.2187 305.263 -19.4988 304.283 -14.7216 303.712L33.7523 298.787C37.7099 298.387 44.196 297.816 48.1643 297.522L214.947 285.163C219.715 284.694 224.41 283.655 228.933 282.066L236.757 279.107C240.48 277.697 246.774 276.77 250.742 277.05L322.44 282.066C326.42 282.342 332.417 284.305 335.789 286.428L341.841 290.237C345.216 292.36 351.203 294.501 355.153 294.999L445 306.358" stroke="white"/>
<path d="M-125 311.624L-71.2951 319.759C-67.363 320.354 -61.0541 319.809 -57.2775 318.554L-28.4716 308.953C-23.8853 307.527 -19.173 306.547 -14.3997 306.025L34.2733 301.671C38.2525 301.308 44.7313 300.84 48.7033 300.608L216.007 290.855C219.987 290.622 226.252 289.222 229.949 287.741L237.745 284.614C241.438 283.133 247.718 281.958 251.697 282.001L323.251 282.807C327.23 282.854 333.228 284.646 336.585 286.798L342.644 290.677C345.997 292.825 351.952 295.136 355.873 295.811L445 311.17" stroke="white"/>
<path d="M-125 319.035L-70.9243 323.912C-66.9633 324.269 -60.6438 323.508 -56.8853 322.217L-28.1202 312.352C-23.5544 310.898 -18.8444 309.931 -14.0704 309.467L34.7927 305.752C38.7718 305.452 45.2577 305.066 49.2332 304.898L217.078 297.825C221.057 297.657 227.304 296.266 230.969 294.733L238.742 291.483C242.407 289.949 248.658 288.544 252.629 288.358L324.09 285.015C328.069 284.829 334.045 286.445 337.38 288.59L343.45 292.491C346.785 294.636 352.693 297.078 356.581 297.918L445 317.043" stroke="white"/>
<path d="M-125 324.223L-70.5286 325.989C-66.5494 326.116 -60.2334 325.113 -56.4929 323.759L-27.7596 313.349C-23.2164 311.827 -18.5106 310.843 -13.7384 310.417L35.3213 307.242C39.3005 306.985 45.8119 306.685 49.7911 306.576L218.147 301.983C222.126 301.874 228.348 300.459 231.983 298.834L239.743 295.362C243.36 293.737 249.586 292.065 253.54 291.645L324.941 284.072C328.898 283.652 334.849 285.107 338.166 287.308L344.247 291.341C347.564 293.542 353.421 296.18 357.27 297.205L445 320.61" stroke="white"/>
<path d="M-125 331L-70.1067 329.62C-66.1277 329.517 -59.8299 328.314 -56.104 326.942L-27.404 316.359C-23.6781 314.986 -17.3839 313.694 -13.4084 313.489L35.8454 310.949C39.8245 310.744 46.3357 310.535 50.3148 310.489L219.198 308.511C223.177 308.465 229.377 307.071 232.976 305.411L240.725 301.845C245.107 299.946 249.699 298.549 254.409 297.68L325.834 286.163C329.759 285.53 335.669 286.797 338.965 288.973L345.056 292.996C349.09 295.523 353.42 297.567 357.952 299.085L445 325.919" stroke="white"/>
<path d="M-125 338L-69.6535 333.304C-64.8908 332.774 -60.2084 331.657 -55.7084 329.977L-27.0331 318.489C-23.3289 317.01 -17.0454 315.657 -13.0699 315.491L36.3766 313.439C40.3557 313.272 46.8671 313.147 50.8463 313.158L220.268 313.72C224.247 313.72 230.418 312.267 233.985 310.462L241.727 306.543C246.071 304.457 250.608 302.817 255.27 301.648L326.736 285.299C330.621 284.411 336.477 285.568 339.758 287.887L345.857 292.172C349.868 294.865 354.144 297.119 358.616 298.897L445 331.082" stroke="white"/>
<path d="M-125 345L-69.1814 337.179C-64.4428 336.412 -59.7954 335.157 -55.3127 333.434L-26.6709 321.722C-22.9848 320.214 -16.7161 318.888 -12.737 318.772L36.9141 317.319C40.8931 317.203 47.4042 317.166 51.3833 317.239L221.335 320.371C225.314 320.447 231.463 318.997 234.987 317.156L242.724 313.116C247.028 310.964 251.505 309.181 256.108 307.787L327.662 287.444C331.493 286.354 337.291 287.342 340.55 289.624L346.66 293.921C350.646 296.615 354.866 298.941 359.27 300.87L445 336.576" stroke="white"/>
<path d="M-125 352L-68.7058 340.769C-64.0051 339.741 -59.399 338.305 -54.9379 336.476L-26.3205 324.133C-22.6524 322.552 -16.3979 321.2 -12.4224 321.13L37.4329 320.247C41.412 320.177 47.9234 320.228 51.9025 320.365L222.384 326.176C226.363 326.313 232.473 324.832 235.968 322.888L243.727 318.584C247.987 316.302 252.397 314.327 256.927 312.673L328.606 287.618C332.372 286.303 338.102 287.156 341.343 289.517L347.464 293.972C351.423 296.762 355.586 299.24 359.915 301.383L445 341.855" stroke="white"/>
<path d="M-125 359L-68.2069 344.901C-63.5566 343.676 -58.9974 342.134 -54.5621 340.286L-25.963 327.882C-22.3203 326.301 -16.0803 324.988 -12.1011 324.963L37.9636 324.684C41.9427 324.658 48.454 324.798 52.4332 324.988L223.467 333.178C227.446 333.368 233.524 331.927 236.978 329.973L244.723 325.598C248.935 323.286 253.274 321.209 257.72 319.377L329.554 290.772C333.248 289.302 338.902 289.994 342.125 292.311L348.267 296.736C352.2 299.488 356.302 301.996 360.548 304.244L445 347.579" stroke="white"/>
<path d="M-125 365L-67.6795 347.899C-63.0884 346.472 -58.5784 344.806 -54.1687 342.908L-25.5917 330.239C-21.9743 328.63 -15.7452 327.334 -11.7662 327.355L38.515 327.646C42.4941 327.671 49.0053 327.89 52.9844 328.135L224.548 338.746C228.527 338.994 234.564 337.563 237.983 335.559L245.735 331.039C249.153 329.045 254.908 326.08 258.518 324.447L330.536 291.931C334.154 290.302 339.724 290.869 342.926 293.175L349.075 297.62C352.277 299.936 357.721 303.408 361.179 305.338L445 352.157" stroke="white"/>
<path d="M-125 371L-67.1463 350.163C-63.3986 348.814 -57.3792 346.323 -53.7835 344.625L-25.2274 331.172C-21.61 329.474 -15.4205 328.143 -11.4413 328.212L39.0292 329.111C43.0084 329.18 49.5198 329.492 53.4772 329.801L225.62 343.287C229.6 343.596 235.597 342.123 238.976 340.015L246.739 335.15C250.121 333.041 255.783 329.801 259.302 327.951L331.514 290.137C335.044 288.29 340.532 288.741 343.712 291.144L349.861 295.798C353.045 298.201 358.406 301.899 361.799 304.019L445 356.209" stroke="white"/>
<path d="M-125 377L-66.6033 353.142C-62.9207 351.639 -56.9808 349.002 -53.3959 347.28L-24.8614 333.563C-21.2801 331.842 -15.0942 330.527 -11.115 330.642L39.5692 332.079C43.5484 332.19 50.0599 332.582 54.0029 332.949L226.701 348.84C230.68 349.199 236.638 347.762 239.977 345.606L247.754 340.603C251.097 338.447 256.642 335.069 260.083 333.085L332.504 291.291C335.944 289.307 341.345 289.648 344.507 292.049L350.682 296.721C353.84 299.121 359.121 302.902 362.413 305.123L445 360.807" stroke="white"/>
<path d="M-125 386L-66.0354 358.563C-62.4179 356.881 -56.5612 354.048 -53.0125 352.26L-24.4924 337.961C-20.9328 336.173 -14.7687 334.843 -10.7931 335.003L40.0974 337.06C44.0766 337.219 50.5663 337.699 54.5202 338.124L227.775 356.783C231.732 357.208 237.669 355.73 240.968 353.514L248.76 348.235C252.063 346 257.5 342.422 260.853 340.242L333.495 293.471C336.845 291.316 342.177 291.556 345.299 294.012L351.485 298.844C354.625 301.296 359.805 305.238 363.028 307.603L445 368.049" stroke="white"/>
<path d="M-125 392L-24.1307 339.853C-20.5928 338.037 -14.4467 336.694 -10.4747 336.901L40.6328 339.555C44.612 339.762 51.0909 340.325 55.0411 340.808L228.853 362.048C232.803 362.531 238.703 361.05 241.959 358.754L334.49 293.625C337.746 291.334 342.969 291.483 346.091 293.963L445 372.481" stroke="white"/>
<path d="M445 473.761L396.526 462.875C391.822 461.906 387.041 461.337 382.237 461.175L240.512 458.921C236.533 458.86 230.412 460.343 226.914 462.189L131.952 512.674C128.45 514.534 122.789 514.424 119.367 512.425L16.4247 452.349C13.0062 450.35 9.16808 447.985 7.89835 447.096C6.62862 446.207 2.36001 445.062 -1.58302 444.564L-35.2471 440.296C-39.1938 439.795 -45.6256 439.941 -49.5433 440.652L-125 454.095" stroke="white"/>
<path d="M445 470.69L396.688 459.626C391.982 458.63 387.205 458.012 382.403 457.778L241.291 453.219C237.312 453.092 231.27 454.677 227.863 456.75L136.065 512.51C132.657 514.58 127.14 514.481 123.809 512.291L19.8053 443.922C16.4735 441.736 12.7005 439.134 11.4235 438.146C10.1465 437.158 5.86338 435.959 1.91306 435.486L-33.1768 431.229C-37.1271 430.748 -43.5446 431.05 -47.4334 431.899L-125 448.817" stroke="white"/>
<path d="M445 467.2L396.859 456.373C392.15 455.388 387.376 454.741 382.573 454.439L242.078 447.715C238.099 447.525 232.145 449.154 228.842 451.372L140.185 510.396C136.879 512.597 131.522 512.525 128.277 510.231L23.2219 436.005C19.9662 433.714 16.2692 430.971 14.9777 429.946C13.6863 428.922 9.3996 427.696 5.44571 427.253L-31.1124 423.172C-35.0663 422.73 -41.4619 423.172 -45.3218 424.114L-125 443.919" stroke="white"/>
<path d="M445 462.701L397.029 451.863C392.32 450.859 387.55 450.166 382.751 449.787L242.865 440.781C238.886 440.523 233.029 442.258 229.842 444.634L144.293 508.247C141.095 510.624 135.897 510.577 132.743 508.146L26.6214 426.368C23.467 423.937 19.8206 421.03 18.5219 419.909C17.2233 418.788 12.9402 417.532 8.96103 417.13L-29.0474 413.138C-33.0049 412.724 -39.3752 413.272 -43.2061 414.354L-125 437.501" stroke="white"/>
<path d="M445 460.238L397.2 449.406C392.488 448.4 387.724 447.668 382.929 447.213L243.659 435.881C239.68 435.556 233.929 437.376 230.847 439.924L148.385 508.092C145.306 510.651 140.274 510.629 137.203 508.07L30.0307 418.722C26.9595 416.163 23.3783 413.089 22.0724 411.89C20.7665 410.691 16.451 409.39 12.4899 409.002L-26.9686 405.113C-30.9478 404.721 -37.2746 405.383 -41.0765 406.575L-125 433.088" stroke="white"/>
<path d="M445 455.698L397.369 445.083C392.656 444.087 387.895 443.33 383.105 442.814L244.426 429.394C240.465 429.011 234.804 430.873 231.848 433.536L152.456 504.988C149.5 507.648 144.638 507.673 141.654 505.046L33.4304 409.791C30.4424 407.164 26.919 403.987 25.6022 402.733C24.2855 401.479 19.959 400.156 15.9978 399.798L-24.9157 396.09C-28.8949 395.728 -35.2001 396.491 -38.9659 397.778L-125 427.164" stroke="white"/>
<path d="M445 452.243L397.538 441.644C393.652 440.778 387.239 439.697 383.285 439.246L245.199 423.498C241.245 423.047 235.696 424.983 232.87 427.799L156.518 503.845C153.63 506.661 149.06 506.725 146.096 503.991L36.8458 401.095C33.9517 398.359 30.4753 395.03 29.1476 393.698C27.82 392.366 23.4861 390.998 19.5177 390.663L-22.8475 387.072C-26.8268 386.737 -33.1105 387.6 -36.8438 388.986L-125 421.781" stroke="white"/>
<path d="M445 448.645L397.709 438.24C393.824 437.383 387.417 436.266 383.471 435.755L245.978 417.946C242.035 417.438 236.602 419.387 233.907 422.324L160.584 501.742C159.308 503.139 157.513 503.955 155.616 503.998C153.72 504.042 151.889 503.309 150.549 501.972L40.2602 393.135C37.4313 390.346 34.0237 386.927 32.6852 385.537C31.3467 384.146 27.0022 382.755 23.0338 382.449L-20.7881 379.059C-24.7673 378.749 -31.0255 379.693 -34.7262 381.152L-125 416.819" stroke="white"/>
<path d="M445 446.183L397.879 435.799C393.994 434.943 387.591 433.769 383.655 433.189L246.752 413.048C242.816 412.468 237.506 414.498 234.948 417.549L164.636 501.612C163.476 503.064 161.74 503.935 159.885 503.997C158.03 504.058 156.241 503.303 154.988 501.931L43.6859 385.408C40.933 382.526 37.5796 378.971 36.2267 377.503C34.8738 376.035 30.5256 374.603 26.5572 374.31L-18.7189 371.048C-22.6981 370.761 -28.9347 371.794 -32.6028 373.346L-125 412.421" stroke="white"/>
<path d="M445 443.146L398.049 432.871C394.16 432.021 387.768 430.798 383.84 430.154L247.526 407.823C243.598 407.183 238.41 409.241 235.994 412.404L168.684 500.507C166.271 503.669 162.1 503.847 159.423 500.905L47.108 377.551C44.4311 374.606 41.1247 370.944 39.7646 369.41C38.4044 367.876 34.0454 366.4 30.0734 366.154L-16.6606 363.039C-20.6398 362.775 -26.851 363.885 -30.4865 365.51L-125 407.751" stroke="white"/>
<path d="M445 438.694L398.219 428.458C394.33 427.607 387.945 426.327 384.031 425.618L248.297 400.939C244.379 400.212 239.315 402.328 237.043 405.612L172.732 498.394C170.456 501.666 166.459 501.892 163.851 498.874L50.5591 367.806C47.9509 364.784 44.6952 360.995 43.3242 359.384C41.9531 357.773 37.5652 356.25 33.5932 356.006L-14.5987 353.032C-18.5779 352.788 -24.7637 353.981 -28.3667 355.682L-125 401.383" stroke="white"/>
<path d="M445 435.649L398.389 425.524C394.501 424.678 388.123 423.346 384.22 422.577L249.065 395.723C245.162 394.95 240.224 397.069 238.09 400.44L176.778 497.298C174.643 500.669 170.82 500.926 168.273 497.842L53.9837 359.941C51.4515 356.871 48.2283 352.984 46.8501 351.304C45.4719 349.624 41.0875 348.067 37.1156 347.846L-12.5338 345.026C-16.513 344.801 -22.6626 346.06 -26.2439 347.828L-125 396.684" stroke="white"/>
<path d="M445 431.597L249.831 389.483C245.942 388.642 241.127 390.78 239.137 394.229L180.824 495.225C178.831 498.674 175.17 498.946 172.688 495.83L52.3678 344.695C49.8862 341.579 44.6047 338.862 40.6292 338.655L-10.4784 336.021C-14.4576 335.815 -20.6073 337.141 -24.1343 338.967L-125 390.979" stroke="white"/>
<path d="M445 431.585L249.408 389.463C245.511 388.623 240.685 390.761 238.691 394.21L180.252 495.224C178.254 498.674 174.585 498.946 172.098 495.829L47 339" stroke="white"/>
<path d="M47 339L174.734 489.899C177.315 492.948 181.118 492.642 183.181 489.219L243.227 389.6C245.293 386.178 250.162 384.108 254.048 385.006L445 429.063" stroke="white"/>
<path d="M47 339L177.366 483.972C180.045 486.949 183.978 486.609 186.11 483.212L247.766 384.965C249.897 381.568 254.809 379.574 258.685 380.531L445 426.55" stroke="white"/>
<path d="M47 339L180.001 476.081C182.775 478.938 186.842 478.562 189.039 475.242L252.304 379.714C254.501 376.398 259.457 374.503 263.318 375.508L445 422.832" stroke="white"/>
<path d="M47 339L182.627 470.165C185.498 472.94 189.696 472.519 191.962 469.232L256.852 375.064C259.118 371.774 264.102 369.962 267.956 371.03L445 420.312" stroke="white"/>
<path d="M47 339L185.269 463.269C186.624 464.543 188.47 465.162 190.321 464.964C192.172 464.765 193.844 463.769 194.898 462.237L261.382 370.14C263.713 366.912 268.752 365.193 272.577 366.323L445 417.182" stroke="white"/>
<path d="M47 339L187.908 457.366C189.349 458.596 191.235 459.172 193.115 458.955C194.995 458.739 196.701 457.75 197.827 456.224L265.925 365.443C268.321 362.247 273.396 360.615 277.199 361.807L445 414.66" stroke="white"/>
<path d="M47 339L190.555 450.48C193.726 452.921 198.272 452.363 200.757 449.227L270.475 360.511C272.937 357.378 278.044 355.846 281.829 357.106L445 411.504" stroke="white"/>
<path d="M47 339L193.198 444.586C196.523 446.912 201.065 446.312 203.678 443.202L275.01 355.789C277.547 352.691 282.677 351.253 286.437 352.589L445 409.013" stroke="white"/>
<path d="M47 339L195.848 437.704C199.172 439.907 204.012 439.233 206.6 436.2L279.549 350.888C282.141 347.858 287.314 346.539 291.048 347.931L445 405.831" stroke="white"/>
<path d="M47 339L198.505 431.814C201.913 433.902 206.868 433.159 209.522 430.166L284.098 346.1C286.752 343.108 291.954 341.876 295.659 343.363L445 403.34" stroke="white"/>
<path d="M47 338.954L201.179 424.938C204.663 426.882 209.735 426.08 212.45 423.16L288.653 341.185C291.372 338.261 296.597 337.147 300.255 338.703L445 400.129" stroke="white"/>
<path d="M47 339.615L203.845 419.056C207.401 420.867 212.586 419.99 215.363 417.132L293.194 337.011C295.971 334.15 301.221 333.15 304.857 334.787L445 397.831" stroke="white"/>
<path d="M47 340.263L206.531 413.18C210.157 414.836 215.442 413.903 218.281 411.112L297.748 332.838C300.583 330.043 305.85 329.161 309.446 330.875L445 395.513" stroke="white"/>
<path d="M47 339.075L209.218 406.288C212.905 407.814 218.281 406.806 221.181 404.042L302.301 326.701C305.201 323.937 310.476 323.167 314.029 324.985L445 391.99" stroke="white"/>
<path d="M47 339.746L211.929 400.4C215.674 401.777 221.152 400.702 224.107 398.01L306.858 322.531C309.809 319.835 315.098 319.19 318.608 321.095L445 389.67" stroke="white"/>
<path d="M47 340.083L214.662 393.515C218.461 394.724 224.026 393.594 227.035 391.003L311.425 318.332C314.434 315.741 319.727 315.232 323.185 317.195L445 386.427" stroke="white"/>
<path d="M47 339.012L217.367 386.603C221.21 387.69 226.858 386.465 229.922 383.91L315.979 312.194C319.043 309.657 324.317 309.254 327.736 311.331L445 382.956" stroke="white"/>
<path d="M47 339.162L220.094 379.705C223.973 380.614 229.693 379.349 232.811 376.906L320.543 308.014C323.658 305.565 328.943 305.315 332.286 307.454L445 379.591" stroke="white"/>
<path d="M47 339.096L222.856 373.65C226.768 374.415 232.561 373.082 235.726 370.677L325.108 302.881C328.276 300.479 333.547 300.364 336.825 302.611L445 377" stroke="white"/>
<path d="M47 338.872L225.615 367.159C229.552 367.782 235.403 366.377 238.626 364.035L329.679 297.749C332.895 295.407 338.152 295.418 341.356 297.777L445 374" stroke="white"/>
<path d="M47 339.238L228.385 361.5C232.344 361.986 238.256 360.495 241.519 358.185L334.251 292.636C337.513 290.329 342.748 290.479 345.877 292.976L445 372" stroke="white"/>
<path d="M-125 2L88.9331 105.743C92.518 107.478 98.3385 107.409 101.887 105.586L200.517 54.8424C204.059 53.0273 210.158 52.1233 214.072 52.8494L287.865 66.5573C291.779 67.2834 297.961 66.5573 301.611 64.9673L445 2" stroke="white"/>
<path d="M-125 6L-39.3625 45.1768C-35.7439 46.8313 -29.8275 49.5648 -26.2234 51.2519L90.5484 105.797C94.167 107.485 100.011 107.383 103.575 105.577L165.989 73.7928C169.535 71.9826 175.368 69.0862 178.947 67.3448L201.578 56.3531C205.156 54.6117 211.293 53.7681 215.209 54.4777L288.409 67.743C292.325 68.4671 297.818 68.0797 300.636 66.9139C303.455 65.7482 308.753 63.5397 312.426 62.0046L445 6.61185" stroke="white"/>
<path d="M-125 10L-38.691 47.1505C-35.0351 48.7244 -29.0733 51.3489 -25.4427 52.9806L92.1661 105.856C95.7859 107.488 101.675 107.358 105.23 105.567L167.192 74.359C170.747 72.554 176.604 69.7491 180.223 68.0957L202.622 57.8577C206.242 56.2043 212.396 55.4174 216.334 56.1105L288.939 68.9368C292.859 69.6299 298.35 69.2978 301.159 68.2148C303.968 67.1318 309.274 65.0308 312.974 63.5615L445 11.2166" stroke="white"/>
<path d="M-124 14L-37.168 49.5106C-33.4848 51.0165 -27.4883 53.5553 -23.8413 55.152L94.401 106.903C98.0481 108.496 103.94 108.336 107.493 106.539L168.886 75.5826C172.439 73.7894 178.334 71.0251 181.988 69.4428L204.135 59.8514C207.785 58.2692 213.977 57.5308 217.895 58.2146L289.756 70.7414C293.674 71.4252 299.154 71.1415 301.94 70.1121C304.727 69.0828 310.044 67.0823 313.763 65.6674L445 15.815" stroke="white"/>
<path d="M-124 18L-36.5005 51.8654C-32.7836 53.3028 -26.7381 55.7558 -23.0754 57.3141L96.0179 107.947C99.6878 109.506 105.599 109.311 109.161 107.515L170.089 76.7952C173.65 75.0021 179.584 72.2961 183.272 70.7891L205.186 61.8278C208.874 60.3208 215.1 59.6278 219.023 60.3098L290.274 72.5381C294.197 73.2091 299.675 72.9708 302.448 72.0028C305.221 71.0348 310.554 69.1318 314.3 67.7751L445 20.442" stroke="white"/>
<path d="M-124 24L-35.8113 55.4774C-32.0643 56.8113 -25.9809 59.1248 -22.2917 60.614L97.6489 109.012C101.338 110.502 107.273 110.281 110.843 108.524L171.298 78.7313C174.864 76.9745 180.832 74.3936 184.557 72.991L206.258 64.8506C209.983 63.4553 216.244 62.8407 220.168 63.4878L290.815 75.149C294.74 75.7961 300.219 75.6009 302.975 74.7189C305.731 73.8369 311.084 72.0729 314.856 70.8041L445 27.0075" stroke="white"/>
<path d="M-124 28L-35.1212 57.8256C-31.3477 59.0906 -25.2225 61.3181 -21.5141 62.7691L99.2642 110.054C102.973 111.512 108.931 111.253 112.506 109.493L172.503 79.9222C176.077 78.1577 182.079 75.6385 185.838 74.3224L207.322 66.8013C211.081 65.4852 217.373 64.9274 221.302 65.5654L291.342 76.9291C295.271 77.5634 300.748 77.414 303.487 76.5937C306.226 75.7734 311.599 74.1146 315.394 72.9042L445 31.6384" stroke="white"/>
<path d="M-124 33L-34.4343 60.4669C-30.6306 61.6332 -24.4673 63.7182 -20.7396 65.0998L100.888 110.122C104.616 111.504 110.598 111.224 114.181 109.501L173.708 80.8715C178.069 78.8413 182.546 77.0667 187.117 75.5568L208.393 68.8175C212.186 67.6153 218.505 67.1345 222.439 67.7409L291.872 78.5389C295.806 79.149 301.282 79.0449 304.01 78.3057C306.739 77.5664 312.117 76.0485 315.953 74.9324L445 37.1627" stroke="white"/>
<path d="M-124 38L-33.7366 63.4591C-29.9064 64.5308 -23.7086 66.5062 -19.958 67.835L102.511 111.177C106.262 112.502 112.264 112.195 115.852 110.491L174.916 82.4668C179.284 80.4672 183.786 78.7653 188.39 77.3728L209.467 71.3001C213.29 70.2034 219.64 69.789 223.586 70.382L292.411 80.7414C296.346 81.3344 301.802 81.2737 304.535 80.6057C307.268 79.9377 312.644 78.5445 316.482 77.5086L445 42.7439" stroke="white"/>
<path d="M-123 43L-32.2062 66.4629C-28.3598 67.4583 -22.1385 69.3069 -18.3753 70.5832L104.74 112.23C108.503 113.499 114.501 113.165 118.115 111.483L176.606 84.0637C180.978 82.1006 185.498 80.4735 190.126 79.1969L210.966 73.8147C214.813 72.8228 221.179 72.478 225.112 73.0503L293.211 82.9723C297.144 83.5482 302.584 83.5304 305.299 82.9368C308.014 82.3431 313.393 81.0704 317.247 80.1105L445 48.3325" stroke="white"/>
<path d="M-123 47L-31.5131 68.8017C-27.6439 69.7241 -21.388 71.4901 -17.6128 72.7248L106.383 113.27C110.161 114.505 116.193 114.135 119.791 112.448L177.811 85.2409C182.192 83.2838 186.736 81.7104 191.393 80.5388L212.055 75.7327C215.928 74.8318 222.318 74.5554 226.252 75.1153L293.743 84.7491C297.681 85.3127 303.116 85.3378 305.821 84.8066C308.525 84.2753 313.91 83.1124 317.786 82.2222L445 52.9727" stroke="white"/>
<path d="M-123 50L-30.816 70.4377C-26.9274 71.2998 -20.6441 73.0168 -16.8459 74.2216L108.003 114.297C111.801 115.517 117.853 115.108 121.455 113.387L179.014 85.9455C183.402 83.9622 187.97 82.4197 192.652 81.34L213.137 77.0476C217.032 76.2333 223.446 76.0233 227.389 76.5833L294.273 86.0745C298.212 86.6308 303.642 86.7009 306.337 86.2292C309.032 85.7576 314.425 84.6855 318.318 83.8528L445 56.7462" stroke="white"/>
<path d="M-123 55L-30.0992 73.1284C-26.1948 73.8903 -19.8806 75.4536 -16.0667 76.5982L109.636 114.357C113.45 115.502 119.521 115.079 123.133 113.4L180.221 87.0001C184.617 85.0819 189.208 83.6426 193.914 82.7072L214.231 79.1219C218.15 78.4323 224.584 78.3023 228.528 78.8331L294.808 87.7222C298.752 88.2493 304.176 88.3612 306.861 87.9677C309.546 87.5741 314.959 86.6607 318.853 85.9169L445 62.203" stroke="white"/>
<path d="M-123 59L-29.3927 75.4321C-25.469 76.1193 -19.1274 77.5926 -15.3015 78.7002L111.273 115.403C115.099 116.499 121.191 116.046 124.811 114.368L181.429 88.1062C185.838 86.1921 190.455 84.8092 195.184 83.9863L215.345 80.9813C220.105 80.3844 224.917 80.3427 229.686 80.857L295.354 89.4916C299.303 90.0107 304.721 90.1643 307.396 89.8353C310.071 89.5063 315.471 88.6984 319.399 88.0367L445 66.9071" stroke="white"/>
<path d="M-123 64L-28.6755 78.4342C-24.7397 79.0344 -18.3744 80.3912 -14.5328 81.4461L112.918 116.444C116.76 117.499 122.868 117.008 126.492 115.353L182.643 89.6963C186.264 88.0376 192.47 86.2988 196.427 85.8259L216.439 83.4432C221.222 82.9763 226.038 82.9934 230.817 83.4941L295.879 91.7007C299.833 92.199 305.242 92.3954 307.907 92.1372C310.572 91.8789 315.963 91.2023 319.913 90.6494L445 72.4612" stroke="white"/>
<path d="M-122 70L-27.127 82.7018C-22.3615 83.3946 -17.6336 84.3346 -12.9617 85.5183L115.13 119.478C118.977 120.501 125.094 119.973 128.721 118.305L184.301 92.7533C187.916 91.0885 194.135 89.4311 198.097 89.062L217.943 87.2569C222.733 86.9086 227.544 86.9852 232.321 87.4858L296.676 95.4184C300.624 95.9057 306.022 96.1567 308.669 95.9611C311.315 95.7654 316.717 95.2228 320.661 94.7208L445 79.1988" stroke="white"/>
<path d="M-122 74L-26.3909 84.4684C-21.6104 85.0492 -16.8654 85.8887 -12.177 86.983L116.793 118.535C120.656 119.48 126.79 118.938 130.425 117.328L185.537 92.9357C189.172 91.3263 195.396 89.8175 199.368 89.584L219.086 88.4164C223.893 88.2043 228.708 88.3375 233.495 88.8152L297.23 96.1581C301.179 96.6108 306.572 96.8766 309.212 96.776C311.852 96.6754 317.231 96.2336 321.18 95.842L445 83.563" stroke="white"/>
<path d="M-122 78L-25.6863 86.5091C-20.8947 86.9884 -16.1353 87.7406 -11.432 88.7621L118.415 118.578C122.29 119.469 128.44 118.902 132.083 117.319L186.713 93.5781C190.356 91.9953 196.589 90.6051 200.569 90.491L220.192 89.9099C225.007 89.8283 229.823 90.0199 234.616 90.4839L297.74 97.3924C301.715 97.8321 305.711 98.0701 309.711 98.1053C312.338 98.059 317.736 97.7774 321.701 97.4744L445 88.0883" stroke="white"/>
<path d="M-122 83L-24.9541 89.741C-20.1543 90.1369 -15.3829 90.8247 -10.6664 91.8007L120.061 120.611C123.948 121.466 130.115 120.864 133.766 119.269L187.938 95.59C191.586 93.9982 197.829 92.6891 201.81 92.6891H221.32C225.3 92.6891 231.796 93.0517 235.756 93.4542L298.291 100.101C302.25 100.522 307.632 100.884 310.234 100.91C312.836 100.935 318.242 100.775 322.22 100.547L445 93.8459" stroke="white"/>
<path d="M-122 88L-24.2232 92.646C-19.4156 92.9325 -14.6321 93.5155 -9.90181 94.3913L121.713 120.661C125.612 121.44 131.791 120.829 135.448 119.311L189.153 96.9708C192.809 95.4524 199.057 94.3005 203.036 94.4157L222.462 94.9777C226.444 95.0929 232.96 95.5048 236.902 95.8887L298.807 101.92C302.789 102.308 308.144 102.695 310.754 102.786C313.364 102.877 318.751 102.852 322.729 102.734L445 99.0233" stroke="white"/>
<path d="M-122 93L-23.4977 95.8458C-18.6836 96.0533 -13.8889 96.5774 -9.14611 97.4146L123.358 122.689C127.269 123.436 133.465 122.789 137.119 121.266L190.354 98.962C194.015 97.4288 200.269 96.3652 204.245 96.6L223.613 97.7419C227.596 97.9766 234.089 98.4746 238.055 98.8482L299.358 104.622C303.341 104.995 308.694 105.433 311.287 105.596C313.88 105.76 319.254 105.863 323.237 105.828L445 104.835" stroke="white"/>
<path d="M-121 98L-21.9187 98.9975C-17.1138 99.1147 -12.3228 99.5697 -7.58086 100.359L125.568 124.712C129.484 125.44 135.693 124.737 139.349 123.183L192.017 100.829C195.68 99.2742 201.922 98.2803 205.881 98.6444L309.523 108.11C313.5 108.474 319.98 108.816 323.958 108.875L445 110.695" stroke="white"/>
<path d="M-125 -29.005L-25.7182 -5.36718C-21.8411 -4.44557 -15.7175 -5.08305 -12.1086 -6.78785L21.8936 -22.8451C25.4989 -24.5499 31.3145 -27.5224 34.8039 -29.453L72.1252 -50.0892C75.6798 -52.0037 80.1025 -50.8088 82.2236 -47.3608L101.428 -15.4029C103.49 -11.9751 107.972 -7.47998 111.392 -5.41818L143.525 13.9576C146.942 16.0194 152.819 16.6204 156.569 15.2981L287.748 -30.819C291.509 -32.1414 297.401 -31.5658 300.839 -29.5404L376 14.7226" stroke="white"/>
<path d="M-125 -28.344L-27.2315 -3.99036C-23.3643 -3.02637 -17.2085 -3.55988 -13.5584 -5.17512L19.7046 -19.8925C23.3582 -21.5078 29.2497 -24.3372 32.7947 -26.1769L69.3673 -45.1697C73.0285 -46.9781 77.4418 -45.7488 79.6837 -42.2961L99.0382 -11.1688C101.167 -7.74699 105.708 -3.25449 109.13 -1.18301L140.789 17.9827C144.211 20.0542 150.077 20.6245 153.825 19.2521L219.207 -4.7152C222.954 -6.0876 229.132 -8.19219 232.938 -9.39166L275.919 -22.9427C279.722 -24.1422 285.624 -26.1327 289.028 -27.358C292.431 -28.5832 298.127 -28.0938 301.676 -26.2541L379 13.7184" stroke="white"/>
<path d="M-125 -25.9915L-28.9826 -1.27271C-25.1327 -0.280446 -18.9641 -0.694196 -15.2586 -2.18809L17.1914 -15.3475C20.8788 -16.8414 26.8379 -19.4667 30.4314 -21.1839L66.2041 -38.2539C69.8157 -39.9711 74.5324 -38.62 76.7246 -35.2697L96.1874 -5.42851C98.3797 -2.07092 102.97 2.35217 106.39 4.40261L137.518 23.047C140.938 25.0937 146.786 25.61 150.52 24.2223L217.406 -0.954163C221.13 -2.35286 227.313 -4.37034 231.13 -5.42851L275.426 -17.6982C279.247 -18.76 285.239 -20.6787 288.71 -21.9419C292.18 -23.2051 298.006 -22.9415 301.646 -21.3304L381 13.7761" stroke="white"/>
<path d="M-125 -25.4157L-30.3331 0.0152893C-26.4854 1.04703 -20.2798 0.754887 -16.5406 -0.628159L15.2573 -12.4358C18.9966 -13.8226 25.0466 -16.2743 28.699 -17.8829L63.8022 -33.3368C67.4547 -34.9454 72.2969 -33.5254 74.5643 -30.1824L94.2079 -1.16437C96.4753 2.16382 101.137 6.6014 104.569 8.65378L135.285 27.0623C138.717 29.1221 144.565 29.6176 148.282 28.1717L216.926 1.37985C221.445 -0.322361 226.05 -1.77287 230.722 -2.96528L276.519 -14.0851C280.388 -15.0244 286.464 -16.8845 290.022 -18.2195C293.581 -19.5544 299.54 -19.499 303.272 -18.0937L385 12.6328" stroke="white"/>
<path d="M-125 -23.0568L-31.8646 2.28379C-28.03 3.32548 -21.7993 3.17357 -18.019 1.94017L13.0623 -8.18739C16.8426 -9.43887 22.9649 -11.6091 26.6694 -13.0559L61.0395 -26.4387C64.7439 -27.8855 69.688 -26.4387 72.0227 -23.2087L91.8099 4.05249C94.1446 7.27161 98.8683 11.5433 102.291 13.5435L132.537 31.1401C135.989 33.1403 141.833 33.6033 145.534 32.1565L215.81 4.66739C220.311 2.97168 224.927 1.59857 229.623 0.558483L276.852 -9.07717C281.492 -10.0856 286.062 -11.3903 290.535 -12.9835C294.149 -14.3363 300.246 -14.499 304.052 -13.3452L388 12.0894" stroke="white"/>
<path d="M-125 -22L-33.3962 3.85056C-29.5713 4.93763 -23.3191 4.91227 -19.5014 3.8107L10.867 -4.94747C14.6848 -6.03454 20.8827 -8.02026 24.6354 -9.32475L58.2834 -21.0144C62.0361 -22.3189 67.0783 -20.7934 69.4802 -17.6227L89.3995 8.59744C91.8086 11.7681 96.5943 15.9895 100.036 17.9789L129.82 35.1872C133.262 37.1765 139.095 37.5933 142.783 36.1148L214.684 7.24947C219.169 5.53488 223.796 4.21692 228.51 3.31065L277.187 -5.07067C281.897 -5.9645 286.529 -7.22819 291.042 -8.85006C294.744 -10.2524 300.935 -10.6365 304.8 -9.7016L391 11.1412" stroke="white"/>
<path d="M-125 -21L-34.9253 5.8035C-31.1135 6.93662 -24.8399 7.0658 -20.9849 6.0877L8.68631 -1.44548C12.5378 -2.42357 18.7933 -4.18783 22.5978 -5.36893L55.5357 -15.5891C59.333 -16.7665 64.4732 -15.1388 66.953 -11.9683L86.9973 13.643C89.4807 16.8135 94.332 21.0544 97.7792 23.0697L127.089 40.1919C130.537 42.2071 136.363 42.5983 140.037 41.0592L213.562 10.2954C218.03 8.53645 222.664 7.25262 227.39 6.46418L277.535 -0.799564C282.267 -1.58635 286.917 -2.822 291.425 -4.49049L291.678 -4.59015C295.388 -6.04068 301.619 -6.63122 305.524 -5.90042L394 10.6645" stroke="white"/>
<path d="M-125 -20L-36.1089 6.88907C-32.2957 8.04313 -25.9694 8.31981 -22.0838 7.50433L7.01666 1.42825C10.9095 0.612771 17.2612 -0.87621 21.1179 -1.881L53.4811 -10.3161C57.3377 -11.3137 62.5885 -9.63537 65.156 -6.58095L85.4097 17.6105C87.9772 20.6758 92.9093 24.7969 96.3749 26.7701L125.32 43.2545C128.785 45.2313 134.63 45.5808 138.305 44.0372L213.736 12.3499C218.205 10.5926 222.864 9.37062 227.617 8.70935L279.433 2.86263C284.193 2.21655 288.87 1.06203 293.386 -0.581326L293.94 -0.799759C297.655 -2.25598 303.927 -3.01321 307.878 -2.50718L399 9.14257" stroke="white"/>
<path d="M-125 -18L-37.6371 9.00756C-33.8372 10.1826 -27.5039 10.6102 -23.5882 9.95979L4.84279 5.24892C8.76941 4.6129 15.1678 3.39116 19.0619 2.56469L50.7427 -4.16563C54.6367 -4.9921 59.982 -3.24933 62.6203 -0.292011L83.0025 22.5473C85.6408 25.5082 90.6422 29.5112 94.1129 31.4444L122.584 47.3162C126.058 49.2494 131.892 49.5656 135.554 48.0169L212.61 15.3929C216.272 13.8442 222.515 12.2991 226.482 11.9649L279.79 7.48757C284.554 6.96692 289.237 5.88118 293.741 4.25357L294.599 3.92298C298.305 2.45689 304.584 1.52981 308.554 1.82087L402 8.70212" stroke="white"/>
<path d="M-125 -16L-39.1701 11.5293C-35.3833 12.7431 -29.0431 13.3302 -25.108 12.844L2.67612 9.39697C6.62564 8.90711 13.0671 7.95622 16.9877 7.31508L48.0234 2.13555C51.9476 1.48001 57.3981 3.31337 60.0962 6.20929L80.5961 28.0764C83.3123 30.9579 88.3794 34.92 91.8552 36.8398L119.856 52.3496C123.332 54.273 129.162 54.5576 132.812 52.9799L211.473 18.9384C215.122 17.3572 221.358 15.8768 225.329 15.6463L280.156 12.455C284.134 12.2245 290.402 10.8413 294.102 9.38256L295.256 8.92513C298.956 7.48437 305.235 6.34977 309.213 6.44342L405 8.70901" stroke="white"/>
<path d="M-125 -15L-40.6669 12.6529C-36.8968 13.8881 -30.5676 14.6426 -26.6023 14.3259L0.539978 12.1511C4.51608 11.8343 10.9754 11.1936 14.9226 10.7273L45.3217 7.1252C49.2689 6.65892 54.7848 8.54896 57.5753 11.3466L78.1969 31.952C81.6399 35.2261 85.47 38.081 89.6046 40.4554L117.134 55.4048C120.615 57.2913 126.441 57.5405 130.078 55.9601L210.37 20.9748C214.006 19.3909 220.234 17.9885 224.207 17.8568L280.533 16.0095C284.51 15.8813 290.781 14.5857 294.471 13.1263L295.917 12.5568C299.608 11.101 305.879 9.8339 309.855 9.7378L408 7.37792" stroke="white"/>
<path d="M-125 -15L-42.0452 13.5664C-38.2813 14.861 -31.9478 15.8011 -27.9703 15.6565L-1.35866 14.6766C2.62242 14.5319 9.13691 14.1775 13.0963 13.8955L42.9471 11.7512C46.9282 11.4692 52.5161 13.4869 55.3898 16.2423L76.171 36.1737C79.7083 39.4142 83.5921 42.2555 87.7523 44.646L114.86 59.4138C118.352 61.3158 124.183 61.54 127.816 59.9092L209.884 23.0187C213.504 21.3879 219.743 20.021 223.724 19.9848L281.678 19.4533C285.659 19.4171 291.934 18.1696 295.626 16.6798L297.378 15.9566C301.069 14.4668 307.338 13.0168 311.308 12.7384L412 5.66185" stroke="white"/>
<path d="M-125 -12L-43.5632 16.6931C-39.816 18.0131 -33.4935 19.122 -29.5148 19.1578L-3.47242 19.3903C0.50628 19.4225 7.01688 19.3903 10.9956 19.2937L40.2933 18.6498C44.272 18.564 49.9362 20.6531 52.884 23.3003L73.7867 42.045C77.4084 45.1601 81.3368 47.908 85.513 50.2476L112.149 64.4636C115.65 66.3309 121.473 66.5241 125.094 64.8893L208.755 27.0671C212.372 25.4323 218.59 24.1373 222.568 24.2053L282.054 25.0245C286.032 25.0781 292.3 23.9084 295.983 22.4203L298.03 21.5939C302.509 19.9053 307.167 18.7256 311.915 18.0775L415 6.41924" stroke="white"/>
<path d="M-125 -11L-45.0748 18.56C-40.5443 20.1013 -35.8421 21.0765 -31.0743 21.4637L-5.56762 22.8938C-1.59124 23.1188 4.91557 23.3947 8.89195 23.5072L37.6339 24.3457C41.6103 24.4582 47.3327 26.6759 50.3548 29.2675L71.4006 47.3142C75.1079 50.376 79.0809 53.0982 83.2719 55.4482L109.433 69.4733C112.943 71.3571 118.763 71.5204 122.371 69.8362L207.642 30.1132C211.257 28.4327 217.453 27.1732 221.426 27.3184L282.445 29.5288C286.422 29.674 292.679 28.5452 296.355 27.0244L298.698 26.0589C303.166 24.3126 307.793 23.0082 312.514 22.1642L418 5.59482" stroke="white"/>
<path d="M-125 -10L-46.5851 20.0565C-42.0723 21.6732 -37.3992 22.7946 -32.647 23.4009L-7.64311 26.022C-3.69075 26.4364 2.78692 27.0362 6.74651 27.3561L35.0091 29.65C38.9832 29.9699 44.7419 32.2856 47.8417 34.7903L68.9908 51.9233C72.7845 54.8874 76.8047 57.5458 81.014 59.8737L106.69 73.506C110.205 75.3745 116.022 75.509 119.616 73.8041L206.529 32.6564C210.123 30.9514 216.312 29.7481 220.279 29.9735L282.841 33.5834C286.815 33.8124 293.058 32.7436 296.728 31.2095L299.362 30.1189C303.827 28.3422 308.431 26.9403 313.127 25.9275L421 4.54475" stroke="white"/>
<path d="M-125 -8L-47.9555 22.204C-43.4545 23.8702 -38.8085 25.1196 -34.0767 25.9363L-9.48029 29.6974C-5.55934 30.2984 0.886358 31.2234 4.82901 31.7381L32.6808 35.4488C36.6234 35.9743 42.447 38.3569 45.6264 40.7395L66.9457 56.7521C70.827 59.5825 74.8985 62.1451 79.1317 64.4219L104.401 77.5551C107.928 79.3871 113.751 79.4915 117.343 77.7855L206.009 35.6756C209.601 33.9732 215.775 32.8286 219.754 33.1346L283.972 38.1014C287.951 38.4073 294.187 37.4067 297.858 35.8771L300.796 34.6534C305.259 32.8665 309.841 31.3862 314.508 30.2229L425 4.34505" stroke="white"/>
<path d="M-125 -7L-49.4461 24.0368C-44.9668 25.7922 -40.3611 27.2006 -35.6693 28.2499L-11.521 33.2356C-7.62402 34.0374 -1.23989 35.3057 2.66794 36.0492L30.1059 41.2827C34.0138 42.0116 39.8665 44.5263 43.12 46.8406L64.5751 62.1258C68.5372 64.8779 72.6531 67.398 76.9023 69.6736L101.69 82.5679C105.226 84.4084 111.046 84.4849 114.625 82.7392L204.899 38.6987C208.478 36.953 214.66 35.8414 218.604 36.2314L284.372 42.6859C288.33 43.0722 294.566 42.1173 298.228 40.5574L301.456 39.1798C305.913 37.3485 310.466 35.7668 315.096 34.4419L428 3.41606" stroke="white"/>
<path d="M-125 -6L-50.8272 25.5302C-46.3642 27.3588 -41.7953 28.9128 -37.1458 30.1837L-13.3481 36.3554C-9.49341 37.3554 -3.1739 38.954 0.695267 39.9103L27.8409 46.5966C31.7101 47.5492 37.5916 50.1405 40.9143 52.3523L62.5512 66.7469C65.8738 68.9368 71.4948 72.258 75.0418 74.0793L99.4005 86.6016C102.948 88.4265 108.775 88.4703 112.351 86.7038L204.382 41.2388C207.954 39.4723 214.118 38.4066 218.07 38.8701L285.515 46.7572C289.467 47.2207 295.7 46.3156 299.366 44.7425L302.892 43.2279C306.558 41.6549 312.664 39.403 316.472 38.2204L432 2.34334" stroke="white"/>
<path d="M-125 -4L-52.3245 27.6818C-48.6783 29.2727 -42.5867 31.5399 -38.7886 32.7222L-15.352 40.0153C-11.5502 41.1977 -5.3284 43.1032 -1.51575 44.2531L25.2849 52.3416C29.8453 53.8276 34.2339 55.7961 38.376 58.2137L60.1595 71.5922C63.5489 73.675 69.2317 76.8424 72.7839 78.6286L96.6582 90.6476C100.214 92.4338 106.038 92.4555 109.605 90.6838L203.257 44.2675C206.823 42.503 212.966 41.4906 216.909 42.0185L285.909 51.2858C289.852 51.8174 296.07 50.9676 299.727 49.402L303.547 47.764C307.204 46.1948 313.277 43.8589 317.043 42.5717L435 2.20113" stroke="white"/>
<path d="M-125 -1L-53.6974 31.1674C-50.0757 32.8078 -44.0348 35.2703 -40.2973 36.6427L-17.1479 45.1345C-13.4067 46.5069 -7.27893 48.734 -3.53416 50.0883L23.0232 59.6665C27.5313 61.3673 31.9125 63.3871 36.1335 65.7103L58.1132 78.2217C61.5755 80.1953 67.3266 83.2552 70.894 85.0296L94.3476 96.6791C97.9149 98.4499 103.746 98.439 107.309 96.6538L202.739 48.7919C206.299 47.0067 212.434 46.0326 216.375 46.6192L287.055 57.3525C290.995 57.95 297.195 57.1461 300.867 55.5673L305 53.8001C308.658 52.2213 314.702 49.7842 318.432 48.3864L439 3.13907" stroke="white"/>
<path d="M-125 0L-55.1896 32.65C-51.57 34.336 -45.634 37.0009 -41.9674 38.5491L-19.1099 48.2626C-15.4432 49.818 -9.44202 52.3597 -5.77541 53.9079L20.5279 65.0027C24.1981 66.5509 30.0835 69.3536 33.6054 71.1955L55.7571 82.8596C59.2789 84.716 65.0883 87.671 68.6644 89.4259L91.6414 100.709C95.2175 102.464 101.052 102.424 104.599 100.622L201.629 51.3118C205.18 49.4989 211.297 48.5744 215.224 49.2379L287.467 61.4458C291.394 62.1094 297.601 61.3516 301.243 59.7599L305.655 57.8418C309.307 56.2501 315.312 53.7193 318.997 52.2146L442 2.08844" stroke="white"/>
<path d="M-125 2L88.9331 105.743C92.518 107.478 98.3385 107.409 101.887 105.586L200.517 54.8424C204.059 53.0273 210.158 52.1233 214.072 52.8494L287.865 66.5573C291.779 67.2834 297.961 66.5573 301.611 64.9673L445 2" stroke="white"/>
</g>
<path fill-rule="evenodd" clip-rule="evenodd" d="M375.666 310.329C379.135 312.537 380.018 316.522 377.544 320.417C375.595 323.484 372.917 324.859 370.386 323.981L372.039 319.908C373.196 320.277 374.264 319.967 375.022 318.77C376.114 317.052 375.47 315.33 373.395 314.008C371.35 312.708 369.563 312.885 368.453 314.633C367.536 316.074 367.74 317.603 368.579 318.201L368.718 318.29L370.559 315.392L372.835 316.839L368.929 322.99L362.596 318.959L364.222 316.398L365.932 317.336C365.213 316.103 365.129 314.284 366.503 312.123C368.666 308.718 372.227 308.142 375.666 310.329ZM361.412 320.274L371.675 327.978L365.104 336.992L362.806 335.267L366.908 329.639L365.245 328.392L361.327 333.767L359.145 332.128L363.063 326.752L361.243 325.385L357.063 331.117L354.765 329.392L361.412 320.274ZM345.601 339.814L348.293 336.76L355.814 337.608L356.28 337.69C356.759 337.78 357.258 337.895 357.592 338.012L357.627 337.973L351.755 332.831L354.202 330.056L363.918 338.564L361.086 341.777L353.758 340.794C353.229 340.706 352.451 340.543 351.941 340.379L351.906 340.418L357.764 345.547L355.319 348.321L345.601 339.814ZM372.533 302.633L383.592 308.646L381.49 312.364L370.43 306.35L372.533 302.633ZM339.929 344.693C343.255 341.495 347.065 341.401 350.026 344.474C352.909 347.466 352.666 351.578 349.446 354.676C346.75 357.268 343.53 357.815 341.041 356.075L343.543 352.52C344.812 353.468 346.109 353.395 347.239 352.308C348.633 350.967 348.517 349.138 346.935 347.496C345.366 345.868 343.555 345.723 342.109 347.113C341.017 348.163 340.894 349.429 341.77 350.731L338.017 352.987C336.554 350.287 337.261 347.26 339.929 344.693ZM376.856 292.572L388.814 298.425L386.928 302.265L378.003 297.897L375.167 303.674L372.136 302.191L376.856 292.572ZM325.888 357.327L334.52 350.072L342.441 359.86L333.909 367.034L332.134 364.841L337.463 360.362L336.18 358.777L331.09 363.055L329.406 360.973L334.494 356.695L333.089 354.958L327.663 359.52L325.888 357.327ZM381.173 282.52L393.327 287.669L391.818 291.453L382.745 287.609L380.473 293.302L377.394 291.997L381.173 282.52ZM385.695 270.755L397.871 274.759L394.31 285.264L391.581 284.368L393.806 277.808L391.834 277.159L389.711 283.424L387.119 282.574L389.244 276.309L387.084 275.598L384.819 282.279L382.092 281.381L385.695 270.755ZM308.642 368.684L312.263 366.284L314.411 367.937L318.736 365.069L318.091 362.419L321.709 360.019L324.373 373.749L320.034 376.626L308.642 368.684ZM387.324 262.828L396.585 265.049L397.705 260.969L400.78 261.706L397.421 273.929L394.346 273.192L395.468 269.112L386.209 266.892L387.324 262.828ZM319.4 367.814L316.625 369.655L318.774 371.307C319.304 371.719 320.159 372.396 320.759 372.98L320.79 372.961C320.482 372.183 320.208 371.119 320.046 370.463L319.4 367.814ZM297.897 374.297L300.52 372.881L301.553 374.491C301.517 373.1 302.31 371.507 304.524 370.312C308.01 368.43 311.363 369.626 313.294 373.12C315.242 376.646 314.11 380.465 310.122 382.617C306.981 384.313 304.013 384.218 302.243 382.27L305.607 379.577C306.43 380.44 307.501 380.68 308.726 380.019C310.485 379.07 310.747 377.293 309.581 375.184C308.433 373.107 306.805 372.411 305.015 373.378C303.538 374.174 302.988 375.576 303.428 376.482L303.505 376.624L306.474 375.021L307.754 377.335L301.456 380.734L297.897 374.297ZM390.903 245.109L403.423 247.364L402.687 251.616L396.026 254.602C395.537 254.803 394.8 255.069 394.288 255.195L394.278 255.248L401.825 256.607L401.191 260.28L388.67 258.026L389.37 253.982L396.123 250.778C396.672 250.551 397.371 250.296 397.824 250.196L397.833 250.143L390.268 248.781L390.903 245.109ZM287.201 379.844L297.242 375.339L302.479 386.951L292.551 391.404L291.378 388.804L297.577 386.024L296.728 384.143L290.808 386.799L289.695 384.329L295.616 381.673L294.686 379.613L288.373 382.444L287.201 379.844ZM391.876 239.494L404.675 240.684L404.112 244.874L391.314 243.683L391.876 239.494ZM273.069 384.186L277.016 382.781L283.314 387.142C283.797 387.513 284.38 388.003 284.699 388.353L284.752 388.335L282.096 380.972L285.683 379.695L290.077 391.879L285.924 393.358L279.868 388.969L279.465 388.647C279.108 388.353 278.719 388.009 278.453 387.73L278.402 387.749L281.05 395.094L277.465 396.371L273.069 384.186ZM392.304 223.073L405.172 223.636L405.075 227.743L395.471 227.324L395.328 233.503L392.065 233.36L392.304 223.073ZM265.517 385.953C269.988 384.816 273.4 386.598 274.543 390.696C275.657 394.688 273.472 398.119 269.142 399.22C265.52 400.142 262.41 399.04 261.046 396.321L264.96 394.475C265.627 395.915 266.807 396.485 268.329 396.098C270.202 395.622 270.976 393.987 270.365 391.796C269.758 389.623 268.227 388.613 266.284 389.107C264.815 389.48 264.101 390.512 264.25 392.064L259.853 392.18C259.854 389.132 261.929 386.866 265.517 385.953ZM390.367 195.381L403.202 193.839L404.148 201.155C404.628 204.858 403.111 206.617 400.707 206.906C399.17 207.091 397.624 206.488 396.715 204.854L393.047 207.552L405.396 211.826L405.545 217.032L392.709 222.956L392.585 218.614L395.139 217.573L394.991 212.384L392.385 211.621L392.284 208.114L392.039 208.295L391.459 203.816L395.635 200.912L395.383 198.96L390.9 199.499L390.367 195.381ZM251.668 389.528L255.748 388.717L256.513 392.984L263.026 400.397L258.641 401.268L255.53 397.283C255.25 396.968 255.112 396.7 255.01 396.443L254.974 396.451C254.969 396.729 254.931 397.032 254.78 397.432L253.206 402.348L248.948 403.194L252.432 393.794L251.668 389.528ZM397.687 213.18L397.782 216.51L400.335 215.469L400.81 215.281C401.417 215.043 402.184 214.757 402.819 214.58L402.817 214.544C401.991 214.423 400.938 214.129 400.291 213.943L397.687 213.18ZM397.969 198.65L398.258 200.89C398.426 202.191 399.115 202.695 400.074 202.581C400.996 202.469 401.485 201.842 401.313 200.524L401.023 198.284L397.969 198.65ZM388.693 186.074L398.069 184.306L397.218 180.285L400.332 179.698L402.881 191.745L399.767 192.332L398.917 188.31L389.539 190.077L388.693 186.074ZM383.976 169.274L396.285 165.759L397.451 169.955L392.704 175.634C392.348 176.035 391.795 176.605 391.384 176.947L391.4 176.999L398.818 174.879L399.827 178.504L387.518 182.02L386.409 178.031L391.145 172.112C391.544 171.66 392.067 171.119 392.436 170.826L392.421 170.775L384.983 172.898L383.976 169.274ZM380.303 158.296L392.338 154.073L396.337 164.4L393.641 165.345L391.144 158.897L389.195 159.581L391.581 165.74L389.02 166.638L386.636 160.479L384.499 161.228L387.042 167.796L384.348 168.742L380.303 158.296ZM210.441 391.363C215.048 391.637 217.638 394.375 217.285 398.637C216.939 402.789 213.684 405.4 209.222 405.132C205.489 404.91 202.947 402.913 202.611 399.903L206.942 399.33C207.066 400.907 207.98 401.81 209.546 401.904C211.476 402.019 212.776 400.693 212.965 398.417C213.153 396.157 212.064 394.727 210.062 394.607C208.549 394.517 207.515 395.286 207.114 396.812L202.934 395.585C204 392.676 206.743 391.141 210.441 391.363ZM191.833 389.67L202.681 391.197L200.71 403.83L189.985 402.32L190.426 399.491L197.122 400.434L197.442 398.388L191.046 397.486L191.466 394.801L197.861 395.701L198.211 393.458L191.391 392.499L191.833 389.67ZM379.453 142.229C383.12 140.566 386.836 142.148 388.681 146.134C390.226 149.468 389.718 152.611 387.33 154.324L384.838 150.849C386.111 149.996 386.451 148.779 385.803 147.379C385.004 145.655 383.283 145.157 381.271 146.07C379.273 146.975 378.571 148.593 379.399 150.382C380.023 151.733 381.153 152.264 382.629 151.889L383.532 156.086C380.58 156.538 378.01 154.889 376.482 151.587C374.576 147.472 375.688 143.937 379.453 142.229ZM177.668 386.85L181.733 387.761L184.608 394.8C184.808 395.37 185.027 396.093 185.103 396.561L185.156 396.573L186.965 388.933L190.659 389.761L187.666 402.405L183.388 401.446L180.73 394.511C180.552 394.003 180.324 393.239 180.226 392.712L180.173 392.699L178.368 400.321L174.674 399.494L177.668 386.85ZM162.768 392.212L166.776 393.502L169.577 384.307L173.566 385.592L170.766 394.787L174.774 396.077L173.844 399.13L161.838 395.266L162.768 392.212ZM130.713 365.576L139.909 371.119L139.801 371.303L143.463 373.134L143.129 375.874L147.829 378.223L149.797 376.299L153.077 377.941L153.051 377.725L157.169 379.328L157.654 384.363L159.447 385.06L161.139 380.874L164.926 382.348L160.083 394.333L153.357 391.714C149.952 390.389 149.172 388.229 150.079 385.984C150.658 384.549 151.919 383.477 153.756 383.449L153.177 378.755L143.181 387.633L138.465 385.276L139.479 371.853L133.492 382.063L129.821 379.851L134.611 371.68L129.086 368.351L130.713 365.576ZM358.74 100.443L361.561 103.881L359.547 108.595C359.403 108.996 359.236 109.252 359.059 109.469L359.082 109.497C359.328 109.365 359.61 109.247 360.028 109.183L365.057 108.143L367.796 111.483L357.96 113.052L354.597 115.833L351.973 112.633L355.334 109.851L358.74 100.443ZM154.092 387.469C153.744 388.33 154.047 389.053 155.26 389.526L157.319 390.328L158.472 387.474L156.413 386.672C155.217 386.207 154.454 386.574 154.092 387.469ZM345.31 95.399C348.315 92.515 352.42 92.7609 355.495 95.9867C358.067 98.6871 358.596 101.912 356.844 104.401L353.308 101.893C354.262 100.625 354.196 99.3265 353.117 98.1937C351.787 96.7976 349.96 96.9115 348.312 98.4932C346.676 100.065 346.521 101.878 347.902 103.324C348.943 104.419 350.207 104.542 351.512 103.667L353.744 107.425C351.039 108.887 348.021 108.178 345.474 105.506C342.298 102.174 342.226 98.3602 345.31 95.399ZM142.77 378.705L142.435 381.445L142.328 382.239C142.243 382.827 142.133 383.501 141.999 384.053L142.032 384.068C142.549 383.4 143.333 382.616 143.817 382.137L145.786 380.213L142.77 378.705ZM330.224 90.728L338.814 81.0711L342.211 84.0562L341.363 91.5032C341.285 92.041 341.134 92.8293 340.976 93.344L341.018 93.3812L346.197 87.5594L349.13 90.1381L340.541 99.7956L337.312 96.9577L338.012 89.3107C338.098 88.7069 338.24 87.9585 338.39 87.5088L338.347 87.471L333.157 93.3074L330.224 90.728ZM122.639 360.437L125.885 362.728L118.4 373.268L115.155 370.977L122.639 360.437ZM327.959 72.4056L336.948 79.4018L335.207 81.7124L329.594 77.3425L328.334 79.0145L333.696 83.1873L332.042 85.3816L326.682 81.208L325.301 83.0399L331.018 87.4888L329.277 89.7994L320.185 82.7216L327.959 72.4056ZM102.635 361.043L110.563 351.183L113.855 353.821L113.543 361.356C113.489 361.951 113.387 362.692 113.262 363.139L113.305 363.175L118.094 357.217L121.087 359.614L113.16 369.474L109.695 366.699L110.161 359.355C110.21 358.824 110.32 358.043 110.45 357.531L110.406 357.497L105.628 363.44L102.635 361.043ZM321.347 67.9555C324.404 69.9083 325.766 72.5912 324.876 75.1238L320.81 73.4672C321.186 72.31 320.88 71.2405 319.688 70.4792C317.975 69.3858 316.249 70.0297 314.917 72.1085C313.607 74.1542 313.775 75.9438 315.518 77.056C316.955 77.9737 318.484 77.7716 319.087 76.9317L319.175 76.7926L316.286 74.9477L317.747 72.6683L323.877 76.5834L319.814 82.9244L317.262 81.2939L318.207 79.5819C316.972 80.2997 315.152 80.3836 312.997 79.0076C309.604 76.8411 309.046 73.2732 311.25 69.832C313.474 66.3579 317.464 65.4767 321.347 67.9555ZM92.1248 351.932L94.36 349.554L97.463 352.457L104.194 345.294L107.282 348.184L100.552 355.347L103.655 358.249L101.42 360.627L92.1248 351.932ZM294.784 68.5827L305.705 59.331L310.343 61.7946L308.744 75.9985L304.877 73.9444L305.315 71.1864L300.695 68.7329L298.651 70.6369L294.784 68.5827ZM83.8389 342.752L85.9676 340.766L90.5943 345.781L92.135 344.345L87.7159 339.554L89.7382 337.668L94.158 342.459L95.8459 340.885L91.1339 335.778L93.264 333.791L100.758 341.917L91.2484 350.784L83.8389 342.752ZM302.816 66.7644L305.782 68.3397L306.22 65.5833C306.332 64.9004 306.523 63.7938 306.755 62.9617L306.722 62.9453C306.179 63.6097 305.366 64.3863 304.861 64.8602L302.816 66.7644ZM83.6314 327.175L86.1705 325.179L93.0263 333.442L83.0161 341.314L80.2779 338.015L87.7506 332.139L83.6314 327.175ZM285.791 50.2536L295.896 54.1755L294.779 56.8957L288.469 54.4463L287.661 56.4149L293.688 58.7531L292.628 61.3372L286.6 58.9968L285.714 61.154L292.142 63.648L291.024 66.3668L280.801 62.4012L285.791 50.2536ZM76.7017 317.636L79.4273 315.742L85.6684 324.472L74.9156 331.943L72.4232 328.458L80.4501 322.88L76.7017 317.636ZM277.794 47.7848C281.322 48.8929 283.335 51.411 283.016 54.369L278.747 53.8782C278.961 52.3413 278.278 51.2594 276.798 50.7938C274.973 50.2224 273.445 51.1766 272.78 53.3087C272.12 55.4234 272.859 57.0525 274.754 57.6468C276.182 58.0946 277.336 57.6083 278.045 56.2441L281.789 58.4196C280.15 60.944 277.195 61.7539 273.701 60.6569C269.345 59.2898 267.445 56.051 268.689 52.0622C269.901 48.1772 273.575 46.4615 277.794 47.7848ZM66.4702 318.244L77.6855 311.163L79.9535 314.762L68.7383 321.843L66.4702 318.244ZM256.127 42.0615L260.4 42.9886L263.1 49.8853L263.263 50.3706C263.403 50.8077 263.543 51.3029 263.616 51.6789L263.668 51.6902L265.416 44.0768L269.106 44.8771L266.208 57.5066L262.146 56.6254L259.23 49.6255C259.025 49.0579 258.802 48.3373 258.724 47.8717L258.67 47.8606L256.919 55.4919L253.227 54.6904L256.127 42.0615ZM61.7443 303.031L64.4396 306.379C63.5771 307.209 63.3369 308.283 63.9987 309.504C64.9486 311.258 66.7245 311.509 68.8345 310.329C70.9135 309.165 71.6081 307.532 70.6412 305.745C69.8441 304.273 68.442 303.731 67.5351 304.177L67.3935 304.256L68.9967 307.217L66.6823 308.513L63.2817 302.233L69.7218 298.628L71.1367 301.244L69.5278 302.288C70.9192 302.244 72.5128 303.025 73.7074 305.234C75.5917 308.71 74.3955 312.073 70.901 314.03C67.374 316.003 63.554 314.897 61.3999 310.918C59.7043 307.786 59.7977 304.814 61.7443 303.031ZM53.8616 293.183L56.4612 291.994L59.2467 298.189L61.1274 297.33L58.4667 291.412L60.9352 290.284L63.5958 296.201L65.6561 295.261L62.8194 288.95L65.4184 287.762L69.9308 297.799L58.3228 303.105L53.8616 293.183ZM243.091 40.6259L253.807 42.0599L253.382 44.8866L246.691 43.9909L246.383 46.0345L252.775 46.8899L252.371 49.5742L245.982 48.7192L245.644 50.9591L252.459 51.8709L252.035 54.6973L241.195 53.2458L243.091 40.6259ZM48.4144 278.795L60.5923 274.325L61.9985 278.27L57.6413 284.603L57.3455 284.98C57.0355 285.365 56.6946 285.756 56.4322 285.998L56.4499 286.049L63.8088 283.347L65.0867 286.934L52.9087 291.403L51.4287 287.253L55.8132 281.161C56.1443 280.728 56.6619 280.113 57.0512 279.736L57.0329 279.686L49.6929 282.38L48.4144 278.795ZM234.51 39.3376C238.111 39.5507 240.583 41.2005 241.02 43.802L236.682 44.3243C236.455 43.1505 235.676 42.3794 234.273 42.2965C232.256 42.1772 231.059 43.5574 230.894 45.9766C230.73 48.3607 231.733 49.8169 233.787 49.9378C235.478 50.0375 236.715 49.1321 236.839 48.1238L236.85 47.9612L233.447 47.7596L233.628 45.1056L240.848 45.5319L240.343 52.9191L237.337 52.7404L237.342 50.8191C236.608 52.0266 235.062 52.9684 232.523 52.8192C228.526 52.5822 226.331 49.7866 226.604 45.7781C226.881 41.732 229.937 39.0663 234.51 39.3376ZM221.321 39.2522L225.545 39.275L225.512 52.4249L221.288 52.4012L221.321 39.2522ZM48.5051 262.35L50.3503 266.26C48.9128 266.934 48.3439 268.121 48.7302 269.639C49.2058 271.513 50.8389 272.279 53.0269 271.655C55.1986 271.035 56.2071 269.498 55.7143 267.553C55.3414 266.087 54.3086 265.377 52.7587 265.535L52.6444 261.133C55.6862 261.118 57.9524 263.183 58.8648 266.769C60 271.238 58.2211 274.664 54.127 275.832C50.1387 276.969 46.7105 274.802 45.6111 270.472C44.6905 266.851 45.7908 263.733 48.5051 262.35ZM209.382 39.2434L213.62 39L213.98 48.9L220.358 48.5342L220.48 51.8969L209.865 52.5051L209.382 39.2434ZM42.2076 251.003L45.0395 250.404L46.1808 257.177L48.2287 256.742L47.1394 250.276L49.8288 249.707L50.9185 256.176L53.163 255.701L52.0001 248.804L54.832 248.206L56.6808 259.178L44.0351 261.848L42.2076 251.003ZM197.168 41.0397L201.288 40.5969L202.4 50.1678L208.599 49.5013L208.977 52.7509L198.658 53.8603L197.168 41.0397ZM184.551 43.3721L195.41 41.612L195.978 44.447L189.198 45.5457L189.609 47.5971L196.085 46.547L196.625 49.2395L190.149 50.2888L190.6 52.5362L197.504 51.4164L198.072 54.2514L187.089 56.0319L184.551 43.3721ZM39.7335 234.11L52.2964 227.783L52.6028 232.095L50.0978 233.217L50.4637 238.371L53.0959 239.04L53.4016 243.354L40.1003 239.282L39.7335 234.11ZM42.5575 236.454L42.5601 236.492C43.3913 236.584 44.453 236.84 45.1063 237.003L47.7385 237.673L47.5034 234.365L44.999 235.486L44.2687 235.803C43.7244 236.034 43.095 236.285 42.5575 236.454ZM171.218 46.6536L183.537 43.5545L184.358 46.7321L180.246 47.7657L182.718 57.3336L178.623 58.364L176.152 48.7967L172.039 49.8312L171.218 46.6536ZM43.0482 215.608L43.8178 219.886C42.6677 220.19 41.9487 221.016 41.947 222.418C41.9463 224.43 43.3831 225.528 45.7912 225.533C48.1636 225.536 49.5486 224.443 49.55 222.393C49.5507 220.704 48.5811 219.535 47.5752 219.479L47.4129 219.478L47.4103 222.875L44.769 222.871L44.7736 215.665L52.1249 215.675L52.1221 218.677L50.2171 218.799C51.4574 219.449 52.4805 220.924 52.4784 223.458C52.4767 227.448 49.8333 229.816 45.8428 229.81C41.8165 229.803 38.9967 226.941 39 222.376C39.002 218.782 40.4957 216.215 43.0482 215.608ZM158.027 51.189L162.191 49.7865L168.147 54.2628C168.57 54.6 169.171 55.1266 169.535 55.5214L169.587 55.5043L167.078 48.1392L170.674 46.9288L174.837 59.1451L170.88 60.4775L164.682 56.0249C164.208 55.6476 163.634 55.1499 163.322 54.7944L163.271 54.8115L165.786 62.1925L162.191 63.4044L158.027 51.189ZM40.5336 202.784L43.3862 202.969L42.7488 209.843L44.8119 209.977L45.4208 203.41L48.1297 203.585L47.5208 210.152L49.7802 210.297L50.4307 203.295L53.2818 203.48L52.2501 214.618L39.5132 213.794L40.5336 202.784ZM151.835 53.6414L155.704 51.9823L160.341 63.9708L156.473 65.629L151.835 53.6414ZM43.395 187.458L56.0559 189.236L55.3255 193.412L48.4681 196.987C47.9116 197.245 47.2042 197.535 46.7436 197.657L46.7341 197.711L54.3844 198.785L53.7192 202.58L41.0582 200.802L41.8276 196.409L48.5894 193.062C49.086 192.833 49.8346 192.53 50.3534 192.378L50.3637 192.325L42.7304 191.253L43.395 187.458ZM135.259 61.2277L138.921 59.4709L143.471 68.0713L148.981 65.4286L150.526 68.3492L141.353 72.7478L135.259 61.2277ZM110.186 77.2064L116.155 72.9546C119.178 70.8039 121.486 71.3172 122.942 73.2989C123.872 74.5661 124.115 76.2098 123.131 77.7739L127.991 80.0455L126.21 67.4715L130.671 64.6978L141.606 72.9797L137.885 75.292L135.83 73.5751L131.384 76.3372L131.894 79.0154L128.173 81.3277L128.068 80.5909L124.845 82.8871L120.198 80.5658L118.605 81.6989L121.322 85.3958L117.961 87.7888L110.186 77.2064ZM50.5935 173.175L50.3449 177.46C48.8078 177.352 47.7704 178.105 47.3912 179.611C46.9243 181.466 47.9572 182.92 50.1108 183.436C52.2465 183.947 53.822 183.099 54.3067 181.173C54.6724 179.72 54.1243 178.605 52.7322 177.994L54.6841 174.117C57.28 175.573 58.2472 178.46 57.3535 182.013C56.2377 186.442 53.1299 188.556 49.1019 187.592C45.1776 186.654 43.27 183.115 44.3495 178.826C45.2528 175.238 47.6407 173.063 50.5935 173.175ZM50.6826 159.052L57.4211 166.737L61.6591 168.12L60.3399 172.177L56.1019 170.794L46.1321 173.046L47.5489 168.689L52.7124 167.827C53.1364 167.731 53.4493 167.735 53.7319 167.768L53.7441 167.732C53.4958 167.593 53.2415 167.411 52.9556 167.083L49.3055 163.286L50.6826 159.052ZM129.734 68.3589C130.004 69.1478 130.221 70.2224 130.35 70.886L130.861 73.5633L133.714 71.79L131.659 70.0723L131.229 69.7057C130.759 69.2992 130.192 68.7905 129.767 68.3382L129.734 68.3589ZM99.9961 86.4055L109.673 78.2765L111.794 80.7873L108.564 83.5014L114.95 91.0599L111.733 93.7621L105.347 86.2028L102.116 88.9163L99.9961 86.4055ZM89.8751 96.9542L92.9493 93.9459L100.209 95.4463C100.733 95.5715 101.499 95.7901 101.997 95.9902L102.035 95.9521L96.558 90.4152L99.2121 87.8166L108.3 97.0032L105.377 99.8624L97.9137 98.4838L97.4538 98.3686C96.9812 98.2437 96.4908 98.0937 96.1642 97.9546L96.1274 97.991L101.617 103.541L98.9619 106.14L89.8751 96.9542ZM83.7802 110.024L81.8964 114.023C80.4814 113.294 79.2108 113.595 78.2727 114.881C77.1171 116.467 77.5372 118.278 79.3768 119.647C81.2024 121.005 83.0205 120.834 84.2199 119.188C85.1254 117.947 85.0339 116.656 83.9515 115.505L87.2891 112.589C89.1878 115.04 88.9934 118.194 86.7821 121.232C84.0235 125.018 80.2663 125.776 76.824 123.215C73.4695 120.72 73.0231 116.559 75.6936 112.894C77.9285 109.825 81.0256 108.715 83.7802 110.024ZM80.5951 106.387L87.9852 97.8686L90.2027 99.7984L85.5878 105.117L87.1915 106.513L91.5988 101.432L93.7041 103.265L89.2969 108.346L91.0537 109.875L95.753 104.457L97.9706 106.387L90.4947 115.005L80.5951 106.387ZM115.189 77.0482L117.04 79.5686L118.868 78.266C119.929 77.5101 120.028 76.6678 119.448 75.8783C118.889 75.1182 118.093 74.9809 117.017 75.7479L115.189 77.0482Z" fill="white"/>
<path d="M156.732 258C178.645 258 194.522 249.227 199.814 234.174L175.488 228.818C173.631 236.298 167.317 240.361 157.475 240.361C145.312 240.361 138.069 233.805 138.069 223C138.069 212.288 145.404 205.546 157.475 205.546C167.224 205.546 173.445 209.609 175.395 217.182L200 212.565C195.543 197.42 179.202 188 157.475 188C131.384 188 113 202.683 113 223.369C113 244.517 130.084 258 156.732 258ZM232 256V191H209V256H232ZM266.504 256L271.605 243.641H302.488L307.589 256H333L302.395 191H271.605L241 256H266.504ZM297 229H277L281.785 217.413C282.933 214.587 285.612 207.333 286.856 203H287.144C288.292 207.333 291.067 214.587 292.215 217.413L297 229Z" fill="white"/>
</g>
</svg>
