<svg width="131" height="49" viewBox="0 0 131 49" fill="none" xmlns="http://www.w3.org/2000/svg">
<path d="M26.3922 48.28C39.3842 48.28 48.5362 42.392 51.4162 32.088L36.4402 28.696C35.5442 34.072 32.0882 36.952 26.7762 36.952C19.7362 36.952 15.5122 32.216 15.5122 24.344C15.5122 16.408 19.6722 11.544 26.4562 11.544C32.0242 11.544 35.4162 14.488 36.3122 19.928L51.2882 17.048C49.2402 6.68003 39.8322 0.280029 26.6482 0.280029C10.9682 0.280029 0.344238 10.008 0.344238 24.472C0.344238 39.32 10.2002 48.28 26.3922 48.28Z" fill="white"/>
<path d="M71.3192 1.56003H56.7272V47H71.3192V1.56003Z" fill="white"/>
<path d="M130.536 47L112.296 1.56003H94.2477L76.0077 47H91.1117L94.2477 37.976H112.296L115.432 47H130.536ZM100.648 19.608C101.416 17.368 102.632 13.72 103.208 10.84H103.336C103.976 13.72 105.128 17.368 105.896 19.608L109.032 28.632H97.5117L100.648 19.608Z" fill="white"/>
</svg>
