<svg width="372" height="1006" viewBox="0 0 372 1006" fill="none" xmlns="http://www.w3.org/2000/svg">
<path d="M246.321 611.058L245.815 610.917L245.699 611.429L219.552 726.805L219.435 727.321L219.958 727.408C240.589 730.845 256.382 739.181 267.019 751.707C277.656 764.232 283.18 780.996 283.18 801.367C283.18 828.367 274.097 849.917 257.509 864.722C240.913 879.533 216.748 887.645 186.493 887.645C155.989 887.645 131.45 879.655 114.545 865.208C97.6492 850.769 88.3267 829.836 88.3267 803.832C88.3267 782.473 93.9751 765.341 104.795 752.694C115.615 740.047 131.653 731.832 152.535 728.395L153.041 728.311L152.944 727.807L130.744 612.431L130.649 611.938L130.156 612.035C49.9301 627.873 0.499987 700.626 0.499991 802.353C0.499994 862.856 19.2798 913.645 52.0619 949.315C84.8473 984.987 131.605 1005.5 187.48 1005.5C244.822 1005.5 290.845 986.475 322.529 951.779C354.208 917.088 371.5 866.786 371.5 804.325C371.5 704.076 326.022 633.322 246.321 611.058ZM10.8666 457.706L10.3666 457.706L10.3666 458.206L10.3666 570.623L10.3666 571.123L10.8666 571.123L361.133 571.123L361.633 571.123L361.633 570.623L361.633 458.206L361.633 457.706L361.133 457.706L10.8666 457.706ZM361.633 1.99998L361.633 1.26067L360.947 1.53593L10.6805 142.058L10.3666 142.183L10.3666 142.522L10.3666 281.564L10.3666 281.902L10.6805 282.028L360.947 422.55L361.633 422.825L361.633 422.086L361.633 305.724L361.633 305.368L361.297 305.252L292.073 281.208L292.073 142.877L361.297 118.834L361.633 118.717L361.633 118.362L361.633 1.99998ZM150.151 231.786L150.149 231.785C132.989 225.905 105.074 216.603 82.9 212.126L82.9 211.951C105.065 206.997 132.977 198.185 150.149 192.3L150.151 192.3L219.047 168.371L219.047 255.715L150.151 231.786Z" stroke="#333333"/>
</svg>
